<?xml version="1.0" standalone="no"?><!DOCTYPE svg PUBLIC "-//W3C//DTD SVG 1.1//EN" "http://www.w3.org/Graphics/SVG/1.1/DTD/svg11.dtd"><svg t="1721181200786" class="icon" viewBox="0 0 1024 1024" version="1.1" xmlns="http://www.w3.org/2000/svg" p-id="47497" xmlns:xlink="http://www.w3.org/1999/xlink" width="32" height="32"><path d="M465.536 192c116.48 0 214.176 79.264 240.672 186.112a256 256 0 0 1 38.08-2.848c136.8 0 247.712 109.44 247.712 244.384 0 5.28-0.16 10.56-0.512 15.776A213.824 213.824 0 0 1 778.176 864l-31.968-0.032-1.92 0.032H245.792a213.824 213.824 0 0 1-28-425.824v-1.824C217.792 301.44 328.704 192 465.504 192z m-109.44 309.92H310.816l-93.024 239.904h42.592l22.144-60.16h101.856l22.144 60.16h42.56l-92.992-239.904z m217.696 0H472.96v239.904h39.84v-92.064h60.288c59.296 0 88.928-24.864 88.928-74.24 0-49.088-29.632-73.6-88.224-73.6z m162.144 0h-39.872v239.904h39.872v-239.904z m-401.6 42.336l38.112 105.152H294.464l38.496-105.152h1.344z m236.384-8.736c17.376 0 30.304 3.008 38.496 9.408 8.16 6.048 12.608 16.128 12.608 30.56 0 14.464-4.096 24.864-12.288 31.264-8.16 6.048-21.12 9.408-38.816 9.408h-57.92v-80.64h57.92z" fill="#007FFF" p-id="47498"></path></svg>