<?xml version="1.0" standalone="no"?><!DOCTYPE svg PUBLIC "-//W3C//DTD SVG 1.1//EN" "http://www.w3.org/Graphics/SVG/1.1/DTD/svg11.dtd"><svg t="1727253317555" class="icon" viewBox="0 0 1024 1024" version="1.1" xmlns="http://www.w3.org/2000/svg" p-id="7865" xmlns:xlink="http://www.w3.org/1999/xlink" width="16" height="16"><path d="M459.195733 587.229867c-5.290667-21.9136-10.683733-43.8272-16.384-65.672534a59.050667 59.050667 0 0 1-1.262933-23.7568v-113.390933c0-2.218667 0.034133-4.369067 0.136533-6.485333-31.744 0.955733-63.488 2.1504-95.232 3.4816l-5.461333 0.238933-7.304533 0.2048a108.2368 108.2368 0 0 1-43.485867-9.045333l-40.072533-18.8416L170.666667 316.996267a20.5824 20.5824 0 0 1-10.001067-27.477334 20.957867 20.957867 0 0 1 25.634133-10.752l82.944 28.4672 41.096534 13.789867a50.9952 50.9952 0 0 0 20.855466 1.570133l9.045334-1.467733c57.7536-9.216 115.473067-19.080533 173.056-29.730133 1.262933-0.238933 2.491733-0.4096 3.754666-0.512 11.434667-3.1744 22.664533-6.109867 33.314134-8.362667 52.189867-18.6368 104.174933-37.7856 155.989333-57.344 13.448533-4.949333 29.013333-12.253867 44.032-18.807467l21.162667-9.352533c-3.208533-24.302933-0.7168-49.834667 12.014933-74.410667C840.021333 13.858133 972.8 61.610667 972.8 61.610667L915.114667 169.301333a20.821333 20.821333 0 0 1-5.0176 9.4208L833.399467 321.877333s-27.716267-30.208-46.421334-72.430933l-11.1616 6.382933c-14.472533 8.123733-28.0576 16.452267-44.817066 24.7808-33.792 16.930133-67.549867 33.9968-101.1712 51.268267v171.4176c0 1.194667 0 2.389333-0.068267 3.549867a59.050667 59.050667 0 0 1-13.312 52.804266c-26.350933 29.9008-52.0192 60.279467-77.7216 90.658134l-38.570667 45.533866-19.114666 22.903467-9.5232 11.502933a72.635733 72.635733 0 0 0-5.768534 7.338667 62.805333 62.805333 0 0 0-8.635733 18.1248l-9.557333 28.16-19.2512 56.32-37.7856 112.810667a29.184 29.184 0 0 1-56.149334-15.223467l25.258667-116.189867 18.500267-87.313066a145.8176 145.8176 0 0 1 22.766933-54.8864l8.0896-12.526934 16.042667-25.122133 31.6416-50.517333 2.525866-3.9936zM592.554667 170.1888a85.265067 85.265067 0 0 1-85.572267 84.923733 85.265067 85.265067 0 0 1-85.6064-84.923733 85.265067 85.265067 0 0 1 85.6064-84.957867 85.265067 85.265067 0 0 1 85.572267 84.957867z m-409.088 11.025067L81.92 370.824533S26.4192 306.0736 64.6144 240.298667C107.3152 166.912 183.5008 181.248 183.5008 181.248z m524.834133 660.2752c12.253867 10.376533 13.653333 28.637867 3.208533 40.7552a29.2864 29.2864 0 0 1-38.2976 5.290666l-89.838933-59.323733-45.1584-29.422933-5.632-3.6864a90.624 90.624 0 0 1-24.6784-24.746667c-0.341333-0.546133-0.648533-1.160533-1.024-1.706667l0.170667-0.443733a20.002133 20.002133 0 0 1 1.092266-1.9456c0.682667-0.989867 1.3312-1.6384 2.2528-2.730667l0.4096-0.477866 0.341334-0.477867 9.557333-11.4688 18.944-22.766933 35.0208-41.301334c0.853333 10.1376 1.467733 20.241067 2.423467 30.344534l0.580266 6.656-0.170666 1.2288a9.796267 9.796267 0 0 0 1.262933 5.3248c0.580267 0.682667-0.170667 0.341333 1.570133 1.809066l5.12 4.4032 40.823467 35.054934 82.0224 69.632z" fill="#000000" p-id="7866"></path></svg>