<?xml version="1.0" standalone="no"?><!DOCTYPE svg PUBLIC "-//W3C//DTD SVG 1.1//EN" "http://www.w3.org/Graphics/SVG/1.1/DTD/svg11.dtd"><svg t="1727255523239" class="icon" viewBox="0 0 1024 1024" version="1.1" xmlns="http://www.w3.org/2000/svg" p-id="34589" xmlns:xlink="http://www.w3.org/1999/xlink" width="16" height="16"><path d="M454.77888 130.67776h160.99328v115.46624H454.77888z" fill="#2B3B94" p-id="34590"></path><path d="M779.61728 178.08384a76.25216 76.25216 0 0 0-53.89824-22.28736h-76.17024v114.23744H421.00224V155.79648H344.83712c-42.07616 0-76.17024 34.0736-76.17024 76.14976v495.17056c0 20.19328 8.02304 39.54688 22.272 53.82656a76.30336 76.30336 0 0 0 53.89824 22.34368h380.88192c20.22912 0 39.5776-8.05888 53.89824-22.34368a76.20096 76.20096 0 0 0 22.272-53.82656V231.94624a76.35456 76.35456 0 0 0-22.272-53.8624z m-62.55616 486.69184H353.45408v-48.51712h363.60704v48.51712z m0-126.09536H353.45408v-48.512h363.60704v48.512z m0-126.07488H353.45408v-48.53248h363.60704v48.53248z" fill="#2B3B94" p-id="34591"></path></svg>