<?xml version="1.0" standalone="no"?><!DOCTYPE svg PUBLIC "-//W3C//DTD SVG 1.1//EN" "http://www.w3.org/Graphics/SVG/1.1/DTD/svg11.dtd"><svg t="1726909631355" class="icon" viewBox="0 0 1024 1024" version="1.1" xmlns="http://www.w3.org/2000/svg" p-id="21137" xmlns:xlink="http://www.w3.org/1999/xlink" width="16" height="16"><path d="M539.272533 102.4v179.319467h-68.266666V102.4z" fill="#00B386" p-id="21138"></path><path d="M487.936 251.2896L215.159467 410.453333a34.133333 34.133333 0 0 0-16.930134 29.4912v318.2592a34.133333 34.133333 0 0 0 16.930134 29.4912l272.776533 159.146667a34.133333 34.133333 0 0 0 34.4064 0l272.759467-159.146667a34.133333 34.133333 0 0 0 16.930133-29.4912V439.927467a34.133333 34.133333 0 0 0-16.930133-29.4912l-272.759467-159.146667a34.133333 34.133333 0 0 0-34.4064 0z m17.186133 69.000533l238.626134 139.229867v279.04l-238.626134 139.264-238.6432-139.264v-279.04l238.6432-139.229867z" fill="#444444" p-id="21139"></path><path d="M213.9648 729.9072a34.133333 34.133333 0 0 1 35.9936 57.941333l-2.269867 1.416534-128.426666 72.942933a34.133333 34.133333 0 0 1-35.9936-57.9584l2.269866-1.399467 128.426667-72.942933zM746.769067 742.741333a34.133333 34.133333 0 0 1 44.168533-14.062933l2.389333 1.2288 128.426667 72.942933a34.133333 34.133333 0 0 1-31.351467 60.586667l-2.372266-1.2288-128.426667-72.942933a34.133333 34.133333 0 0 1-12.834133-46.5408z" fill="#444444" p-id="21140"></path><path d="M617.3696 726.016c0 7.748267-2.781867 14.3872-8.311467 19.933867a27.204267 27.204267 0 0 1-19.933866 8.328533c-7.7312 0-14.370133-2.7648-19.9168-8.328533a27.118933 27.118933 0 0 1-8.311467-19.899734v-118.357333c0-0.512-0.256-0.785067-0.785067-0.785067-0.512-0.256-0.785067-0.136533-0.785066 0.4096l-30.1568 61.474134c-5.154133 10.581333-13.6704 15.872-25.531734 15.872s-20.3776-5.290667-25.514666-15.872l-30.190934-61.474134c0-0.546133-0.238933-0.6656-0.768-0.4096-0.512 0-0.768 0.290133-0.768 0.785067v118.357333c0 7.7312-2.7648 14.370133-8.311466 19.899734a27.2384 27.2384 0 0 1-19.9168 8.328533c-7.748267 0-14.3872-2.7648-19.933867-8.328533a27.221333 27.221333 0 0 1-8.311467-19.9168V481.621333a27.306667 27.306667 0 0 1 8.311467-19.950933 27.204267 27.204267 0 0 1 19.933867-8.328533c11.605333 0 20.138667 5.444267 25.5488 16.247466l59.1872 120.661334c0.494933 1.297067 0.9728 1.297067 1.4848 0l59.170133-120.661334c5.1712-10.8032 13.687467-16.247467 25.565867-16.247466 7.7312 0 14.370133 2.781867 19.9168 8.328533 5.546667 5.5808 8.328533 12.219733 8.328533 19.950933v244.394667z" fill="#444444" p-id="21141"></path></svg>