<?xml version="1.0" standalone="no"?><!DOCTYPE svg PUBLIC "-//W3C//DTD SVG 1.1//EN" "http://www.w3.org/Graphics/SVG/1.1/DTD/svg11.dtd"><svg t="1727254722680" class="icon" viewBox="0 0 1024 1024" version="1.1" xmlns="http://www.w3.org/2000/svg" p-id="5290" xmlns:xlink="http://www.w3.org/1999/xlink" width="16" height="16"><path d="M512 42.666667c260.266667 0 469.333333 209.066667 469.333333 469.333333s-209.066667 469.333333-469.333333 469.333333S42.666667 772.266667 42.666667 512 251.733333 42.666667 512 42.666667m0-42.666667C230.4 0 0 230.4 0 512s230.4 512 512 512 512-230.4 512-512S793.6 0 512 0z m-25.6 571.733333c-4.266667 17.066667-4.266667 34.133333-12.8 46.933334-4.266667 12.8-17.066667 25.6-25.6 38.4-12.8 12.8-25.6 17.066667-38.4 25.6s-34.133333 12.8-55.466667 12.8-38.4-4.266667-55.466666-12.8-34.133333-17.066667-42.666667-34.133334c-12.8-12.8-21.333333-34.133333-25.6-51.2-4.266667-17.066667-12.8-42.666667-12.8-68.266666v-25.6c-4.266667-25.6 4.266667-51.2 8.533333-68.266667 4.266667-17.066667 17.066667-38.4 29.866667-51.2 8.533333-17.066667 25.6-25.6 42.666667-34.133333 17.066667-8.533333 38.4-12.8 59.733333-12.8s38.4 4.266667 51.2 8.533333c17.066667 4.266667 29.866667 12.8 38.4 25.6 12.8 12.8 17.066667 25.6 25.6 38.4 8.533333 12.8 8.533333 29.866667 8.533333 46.933333H426.666667c0-12.8-4.266667-21.333333-4.266667-29.866666l-12.8-25.6c-8.533333-4.266667-12.8-8.533333-21.333333-12.8-8.533333 0-21.333333-4.266667-34.133334-4.266667-12.8 0-25.6 4.266667-34.133333 8.533333-12.8 4.266667-17.066667 12.8-25.6 21.333334-8.533333 8.533333-12.8 21.333333-12.8 38.4-4.266667 17.066667-4.266667 29.866667-4.266667 46.933333v29.866667c0 17.066667 4.266667 34.133333 4.266667 46.933333 4.266667 12.8 8.533333 25.6 12.8 34.133333 4.266667 8.533333 12.8 17.066667 25.6 25.6 8.533333 4.266667 17.066667 4.266667 34.133333 4.266667s21.333333 0 29.866667-4.266667c8.533333-4.266667 17.066667-8.533333 21.333333-12.8 4.266667-4.266667 12.8-12.8 12.8-21.333333 4.266667-8.533333 4.266667-17.066667 8.533334-29.866667h59.733333zM810.666667 682.666667h-59.733334L597.333333 439.466667V682.666667h-59.733333V341.333333H597.333333l153.6 243.2V341.333333H810.666667v341.333334z" fill="#333333" p-id="5291"></path></svg>