<?xml version="1.0" standalone="no"?><!DOCTYPE svg PUBLIC "-//W3C//DTD SVG 1.1//EN" "http://www.w3.org/Graphics/SVG/1.1/DTD/svg11.dtd"><svg t="1727255503259" class="icon" viewBox="0 0 1024 1024" version="1.1" xmlns="http://www.w3.org/2000/svg" p-id="34441" xmlns:xlink="http://www.w3.org/1999/xlink" width="16" height="16"><path d="M761.102472 1024H262.897528A138.507059 138.507059 0 0 1 124.514136 885.616608v-664.215548a138.507059 138.507059 0 0 1 138.383392-138.371025 27.676678 27.676678 0 0 1 0 55.353357 83.116602 83.116602 0 0 0-83.030035 83.017668v664.215548a83.128969 83.128969 0 0 0 83.030035 83.030035h498.204944a83.116602 83.116602 0 0 0 83.030035-83.030035v-664.215548a83.104235 83.104235 0 0 0-83.030035-83.017668 27.676678 27.676678 0 0 1 0-55.353357 138.507059 138.507059 0 0 1 138.383392 138.371025v664.215548a138.507059 138.507059 0 0 1-138.383392 138.383392z" fill="#FFF000" p-id="34442"></path><path d="M373.653708 193.736749a27.676678 27.676678 0 0 1-27.676678-27.676679V27.676678a27.676678 27.676678 0 0 1 55.353357 0v138.383392a27.676678 27.676678 0 0 1-27.676679 27.676679zM512.024733 193.736749a27.676678 27.676678 0 0 1-27.676678-27.676679V27.676678a27.676678 27.676678 0 1 1 55.353357 0v138.383392a27.676678 27.676678 0 0 1-27.676679 27.676679zM650.408125 193.736749a27.676678 27.676678 0 0 1-27.639578-27.676679V27.676678a27.676678 27.676678 0 1 1 55.353357 0v138.383392a27.676678 27.676678 0 0 1-27.713779 27.676679zM678.084804 359.784452H318.300351a27.676678 27.676678 0 1 1 0-55.353357h359.784453a27.676678 27.676678 0 0 1 0 55.353357zM678.084804 553.508834H318.300351a27.676678 27.676678 0 1 1 0-55.34099h359.784453a27.676678 27.676678 0 1 1 0 55.34099zM678.084804 747.245583H318.300351a27.676678 27.676678 0 0 1 0-55.353357h359.784453a27.676678 27.676678 0 0 1 0 55.353357z" fill="#E51373" p-id="34443"></path></svg>