<?xml version="1.0" standalone="no"?><!DOCTYPE svg PUBLIC "-//W3C//DTD SVG 1.1//EN" "http://www.w3.org/Graphics/SVG/1.1/DTD/svg11.dtd"><svg t="1727254997309" class="icon" viewBox="0 0 1024 1024" version="1.1" xmlns="http://www.w3.org/2000/svg" p-id="14013" xmlns:xlink="http://www.w3.org/1999/xlink" width="16" height="16"><path d="M298.666667 181.333333A117.333333 117.333333 0 0 0 181.333333 298.666667v42.666666a32 32 0 0 0 64 0V298.666667c0-29.44 23.893333-53.333333 53.333334-53.333334h181.333333V810.666667a32 32 0 0 0 64 0V245.333333H725.333333c29.44 0 53.333333 23.893333 53.333334 53.333334v42.666666a32 32 0 0 0 64 0V298.666667A117.333333 117.333333 0 0 0 725.333333 181.333333H298.666667z" fill="#242424" p-id="14014"></path></svg>