<?xml version="1.0" standalone="no"?><!DOCTYPE svg PUBLIC "-//W3C//DTD SVG 1.1//EN" "http://www.w3.org/Graphics/SVG/1.1/DTD/svg11.dtd"><svg t="1726904234385" class="icon" viewBox="0 0 1024 1024" version="1.1" xmlns="http://www.w3.org/2000/svg" p-id="9895" xmlns:xlink="http://www.w3.org/1999/xlink" width="16" height="16"><path d="M870.4 1024H153.6c-35.84 0-64-28.16-64-64V64c0-35.84 28.16-64 64-64h576l204.8 204.8v755.2c0 35.84-28.16 64-64 64z" fill="#F2F2F2" p-id="9896"></path><path d="M934.4 204.8H747.52c-10.24 0-17.92-7.68-17.92-17.92V0" fill="#DDDDDD" p-id="9897"></path><path d="M870.4 1024H153.6c-35.84 0-64-28.16-64-64V640h844.8v320c0 35.84-28.16 64-64 64z" fill="#DD1212" p-id="9898"></path><path d="M267.52 897.28l-30.72-115.2-32 115.2c-2.56 8.96-3.84 15.36-6.4 19.2-1.28 3.84-3.84 7.68-7.68 10.24-3.84 2.56-8.96 5.12-14.08 5.12-5.12 0-8.96-1.28-11.52-2.56-2.56-1.28-5.12-3.84-7.68-7.68-2.56-3.84-3.84-7.68-5.12-11.52-1.28-5.12-2.56-8.96-3.84-12.8L117.76 766.72c-2.56-6.4-2.56-12.8-2.56-16.64 0-5.12 1.28-8.96 5.12-12.8s7.68-5.12 12.8-5.12c7.68 0 11.52 2.56 14.08 6.4 2.56 5.12 5.12 11.52 6.4 19.2l25.6 112.64 28.16-104.96c2.56-7.68 3.84-14.08 5.12-17.92s3.84-7.68 7.68-11.52 8.96-5.12 15.36-5.12 11.52 1.28 15.36 5.12c3.84 2.56 6.4 6.4 7.68 10.24 1.28 3.84 3.84 10.24 5.12 19.2l28.16 104.96 25.6-112.64c1.28-6.4 2.56-10.24 3.84-14.08 1.28-3.84 2.56-6.4 5.12-8.96s6.4-3.84 11.52-3.84 8.96 1.28 12.8 5.12c3.84 3.84 5.12 7.68 5.12 12.8 0 3.84-1.28 8.96-2.56 16.64l-32 129.28c-2.56 8.96-3.84 15.36-5.12 19.2-1.28 3.84-3.84 7.68-7.68 10.24s-8.96 5.12-14.08 5.12c-6.4 0-10.24-1.28-14.08-3.84-3.84-2.56-6.4-6.4-7.68-10.24-1.28-2.56-2.56-8.96-5.12-17.92zM509.44 765.44H422.4v47.36h80.64c6.4 0 10.24 1.28 12.8 3.84 2.56 2.56 3.84 6.4 3.84 10.24s-1.28 7.68-3.84 10.24c-2.56 2.56-7.68 3.84-12.8 3.84H422.4V896h90.88c6.4 0 10.24 1.28 14.08 3.84 2.56 2.56 5.12 6.4 5.12 11.52s-1.28 7.68-5.12 11.52c-2.56 2.56-7.68 3.84-14.08 3.84h-106.24c-8.96 0-14.08-1.28-17.92-5.12-3.84-3.84-5.12-10.24-5.12-17.92V759.04c0-5.12 1.28-10.24 2.56-14.08 1.28-3.84 3.84-6.4 7.68-7.68 3.84-1.28 7.68-2.56 14.08-2.56h102.4c6.4 0 10.24 1.28 14.08 3.84 2.56 2.56 5.12 6.4 5.12 10.24 0 5.12-1.28 7.68-5.12 11.52-3.84 3.84-8.96 5.12-15.36 5.12zM645.12 928h-58.88c-8.96 0-14.08-1.28-17.92-5.12-3.84-3.84-5.12-10.24-5.12-17.92V759.04c0-8.96 1.28-14.08 5.12-17.92 3.84-3.84 10.24-5.12 17.92-5.12h62.72c8.96 0 16.64 0 24.32 1.28 6.4 1.28 12.8 3.84 17.92 6.4 5.12 2.56 8.96 6.4 11.52 10.24 3.84 3.84 6.4 8.96 7.68 14.08 1.28 5.12 2.56 10.24 2.56 15.36 0 19.2-10.24 33.28-29.44 42.24 25.6 7.68 38.4 24.32 38.4 47.36 0 10.24-2.56 20.48-7.68 29.44-5.12 8.96-12.8 15.36-21.76 19.2-6.4 2.56-12.8 3.84-20.48 5.12-8.96 1.28-17.92 1.28-26.88 1.28zM601.6 765.44v49.92h35.84c10.24 0 16.64-1.28 23.04-2.56 5.12-1.28 8.96-5.12 11.52-10.24 2.56-3.84 3.84-7.68 3.84-12.8 0-10.24-3.84-16.64-10.24-19.2-6.4-3.84-17.92-5.12-32-5.12H601.6z m39.68 76.8H601.6v56.32h42.24c26.88 0 39.68-8.96 39.68-28.16 0-10.24-3.84-16.64-10.24-21.76s-17.92-6.4-32-6.4zM830.72 852.48h-35.84v55.04c0 7.68-1.28 14.08-5.12 17.92-3.84 3.84-8.96 6.4-14.08 6.4-6.4 0-10.24-2.56-14.08-6.4-3.84-3.84-6.4-10.24-6.4-17.92V759.04c0-8.96 2.56-14.08 6.4-17.92 3.84-3.84 10.24-5.12 19.2-5.12h49.92c15.36 0 25.6 1.28 34.56 3.84 7.68 2.56 14.08 6.4 20.48 11.52 5.12 5.12 10.24 11.52 12.8 19.2s3.84 15.36 3.84 24.32c0 19.2-6.4 34.56-17.92 44.8-12.8 8.96-30.72 12.8-53.76 12.8z m-10.24-87.04H793.6v58.88h26.88c8.96 0 16.64-1.28 23.04-2.56 6.4-2.56 10.24-5.12 14.08-8.96s5.12-10.24 5.12-16.64c0-8.96-2.56-15.36-7.68-20.48-5.12-7.68-16.64-10.24-34.56-10.24z" fill="#FFFFFF" p-id="9899"></path><path d="M345.6 381.44c29.44 0 85.76 78.08 85.76 78.08 43.52-47.36 139.52-179.2 168.96-179.2 29.44 0 144.64 163.84 209.92 263.68H215.04c1.28-2.56 101.12-162.56 130.56-162.56zM355.84 299.52c-32 0-57.6-26.88-57.6-60.16s25.6-60.16 57.6-60.16 57.6 26.88 57.6 60.16-25.6 60.16-57.6 60.16z" fill="#DDDDDD" p-id="9900"></path></svg>