<?xml version="1.0" standalone="no"?><!DOCTYPE svg PUBLIC "-//W3C//DTD SVG 1.1//EN" "http://www.w3.org/Graphics/SVG/1.1/DTD/svg11.dtd"><svg t="1727254937717" class="icon" viewBox="0 0 1024 1024" version="1.1" xmlns="http://www.w3.org/2000/svg" p-id="12323" xmlns:xlink="http://www.w3.org/1999/xlink" width="16" height="16"><path d="M741.872 260.917c13.121 13.222 30.626 20.508 49.279 20.508 18.618 0 36.157-7.286 49.31-20.508l32.887-33.019-98.623-99.027-32.886 33.019c-13.187 13.221-20.474 30.83-20.474 49.548 0.035 18.685 7.287 36.293 20.507 49.48z m32.82-66.007h0.033l32.885 32.987c-4.419 4.418-10.253 6.846-16.46 6.846-6.206 0-12.04-2.428-16.425-6.813-4.419-4.452-6.846-10.288-6.846-16.494a23.32 23.32 0 0 1 6.813-16.526zM627.297 403.656l147.125-142.435-32.278-33.627-147.158 142.47 32.31 33.592zM272.54 766.071L405.87 625.93l-32.885-32.986-133.33 140.142 32.886 32.986z m-98.724 65.973c22.7 22.767 52.481 34.168 82.264 34.168 29.715 0 59.396-11.333 81.995-34.033l147.73-154.577-32.885-33.022L305.19 799.194c-27.118 27.183-71.27 27.116-98.488-0.17-27.186-27.288-27.118-71.774 0.135-99.196l147.426-154.274-32.85-33.021L173.95 666.841c-45.397 45.601-45.465 119.738-0.134 165.203z m48.468-400.425c30.726 30.861 71.605 47.861 115.082 47.861 43.442 0 84.321-16.999 115.082-47.86 30.76-30.863 47.692-71.878 47.692-115.522s-16.932-84.692-47.692-115.555l-42.498-42.666-32.886 32.986 42.498 42.668c21.99 22.09 34.1 51.368 34.066 82.566 0 31.164-12.11 60.442-34.066 82.5-21.956 22.058-51.166 34.201-82.196 34.201-31.065 0-60.24-12.143-82.196-34.2l-42.5-42.667-32.884 33.02 42.498 42.668z m-42.498-42.669l49.31-49.512 16.46 16.493c17.54 17.64 40.88 27.353 65.738 27.353h0.033c24.824 0 48.198-9.713 65.737-27.353 17.54-17.607 27.252-41.082 27.252-66.007 0-24.926-9.679-48.4-27.252-66.04l-16.46-16.496 49.346-49.512-32.886-33.021-82.196 82.533 49.31 49.483c8.77 8.835 13.627 20.572 13.627 33.052 0 12.446-4.856 24.184-13.626 32.987-8.769 8.836-20.44 13.693-32.885 13.693-12.412 0-24.083-4.857-32.852-13.693l-49.345-49.514L146.9 355.93l32.885 33.02z m610.623 381.91v-46.68h-46.512v46.68h46.512z m-304.57-227.399l92.248-91.572L545.37 418.7l-92.214 91.54 32.683 33.221z m233.942 255.495L546.147 559.114l-37.642 27.454 177.177 244.195c21.923 22.057 51.132 34.2 82.197 34.2 31.028 0 60.238-12.143 82.196-34.167 21.958-22.058 34.066-51.336 34.066-82.534 0-31.199-12.108-60.477-34.066-82.534l-2.766-2.36-240.553-175.423-27.354 37.743 239.001 174.309c12.412 13.053 19.225 30.12 19.225 48.265 0 18.72-7.252 36.291-20.438 49.514-25.938 26.071-70.965 26.511-97.409 1.18z" p-id="12324"></path></svg>