<?xml version="1.0" standalone="no"?><!DOCTYPE svg PUBLIC "-//W3C//DTD SVG 1.1//EN" "http://www.w3.org/Graphics/SVG/1.1/DTD/svg11.dtd"><svg t="1727253622551" class="icon" viewBox="0 0 1024 1024" version="1.1" xmlns="http://www.w3.org/2000/svg" p-id="8846" xmlns:xlink="http://www.w3.org/1999/xlink" width="16" height="16"><path d="M61.91616 417.62304C9.79968 666.22976 169.0112 909.98272 417.65888 962.10944c248.56576 52.11136 492.3136-107.17184 544.42496-355.76832 52.11648-248.60672-107.14112-492.33408-355.70688-544.44032-102.04672-21.39136-202.74688-6.272-290.28352 35.10784-3.82976 2.89792-6.79424 6.94272-7.84896 11.9808-2.30912 11.00288 4.72064 21.78048 15.72352 24.0896 5.72928 1.19808 11.30496 0.0512 15.80032-3.02592l0.1792 0.03584c77.99296-35.53792 167.3984-47.88736 257.7408-28.94848 225.05984 47.1808 369.32096 267.97056 322.13504 493.04576-47.19104 225.11616-267.98592 369.38752-493.04064 322.20672-225.13664-47.20128-369.31584-267.97056-322.1248-493.09696 14.4128-68.7616 44.09856-130.0736 86.08256-180.62848l0.07168-0.3328c0.96256-1.78176 1.96096-3.47136 2.38592-5.49376 2.31424-11.0336-4.7872-21.84704-15.74912-24.14592-8.63232-1.80736-16.96256 2.18624-21.37088 9.1904l0.03072-0.1536C111.11424 276.992 77.53728 343.1168 61.91616 417.62304z" fill="#272636" p-id="8847"></path><path d="M552.139 788.568 307.682 788.568 307.682 230.154l217.292 0c37.81 0 70.435 4.527 97.865 13.582 27.425 9.052 48.065 21.302 61.91 36.747 25.035 28.76 37.545 61.247 37.545 97.46 0 43.677-14.105 76.162-42.335 97.465-9.59 7.457-16.24 12.117-19.98 13.98-3.725 1.863-10.38 4.925-19.965 9.185 34.62 7.462 62.18 23.035 82.69 46.74 20.5 23.7 30.755 53.12 30.755 88.275 0 38.88-13.32 73.23-39.95 103.055C682.618 771.268 628.828 788.568 552.139 788.568L552.139 788.568zM432.304 456.236l59.12 0c34.615 0 60.31-3.728 77.085-11.182 16.785-7.457 25.165-23.57 25.165-48.335 0-24.762-7.715-41.142-23.16-49.13-15.445-7.992-41.545-11.985-78.292-11.985l-59.917 0L432.305 456.236zM432.304 683.113l85.485 0c35.685 0 62.45-4.385 80.285-13.18 17.84-8.785 26.765-26.095 26.765-51.925 0-25.835-9.455-42.88-28.37-51.13-18.905-8.255-49.125-12.385-90.67-12.385l-73.495 0L432.304 683.113z" fill="#272636" p-id="8848"></path></svg>