<?xml version="1.0" standalone="no"?><!DOCTYPE svg PUBLIC "-//W3C//DTD SVG 1.1//EN" "http://www.w3.org/Graphics/SVG/1.1/DTD/svg11.dtd"><svg t="1721698122940" class="icon" viewBox="0 0 1024 1024" version="1.1" xmlns="http://www.w3.org/2000/svg" p-id="5949" xmlns:xlink="http://www.w3.org/1999/xlink" width="32" height="32"><path d="M416 544c25.6 0 48 22.4 48 48v64c0 25.6-22.4 48-48 48s-48-22.4-48-48v-64c0-25.6 22.4-48 48-48z m-128-224h256V256c0-70.4-57.6-128-128-128S288 185.6 288 256v64z m310.4 614.4c-28.8 0-54.4-12.8-73.6-32-19.2-19.2-28.8-44.8-28.8-73.6v-166.4c0-57.6 44.8-102.4 102.4-102.4h310.4c57.6 0 102.4 44.8 102.4 102.4v166.4c0 25.6-9.6 54.4-28.8 73.6-19.2 22.4-44.8 32-73.6 32h-48c-25.6 22.4-28.8 22.4-48 41.6l-19.2 16c-9.6 9.6-25.6 16-41.6 16s-28.8-6.4-41.6-19.2c3.2 6.4 3.2 6.4 3.2 3.2l-3.2-3.2c-3.2-3.2-9.6-6.4-16-12.8-9.6-9.6-25.6-22.4-48-41.6h-48zM192 320V256c0-124.8 99.2-224 224-224s224 99.2 224 224v64c86.4 0 160 70.4 160 160 0 25.6-22.4 48-48 48S704 505.6 704 480c0-35.2-28.8-64-64-64H192c-35.2 0-64 28.8-64 64v288c0 35.2 28.8 64 64 64h224c25.6 0 48 22.4 48 48S444.8 928 416 928H192c-86.4 0-160-70.4-160-160v-288c0-89.6 70.4-160 160-160z" fill="#d4237a" p-id="5950"></path></svg>