<?xml version="1.0" standalone="no"?><!DOCTYPE svg PUBLIC "-//W3C//DTD SVG 1.1//EN" "http://www.w3.org/Graphics/SVG/1.1/DTD/svg11.dtd"><svg t="1727255122162" class="icon" viewBox="0 0 1024 1024" version="1.1" xmlns="http://www.w3.org/2000/svg" p-id="26523" xmlns:xlink="http://www.w3.org/1999/xlink" width="16" height="16"><path d="M123.264 574.016V704H64V345.6h108.8a143.744 143.744 0 0 1 96 28.8 100.032 100.032 0 0 1 34.048 80.96 111.808 111.808 0 0 1-35.52 85.504 134.976 134.976 0 0 1-96 33.28z m0-179.2v130.688h38.4a84.992 84.992 0 0 0 58.24-17.728 63.36 63.36 0 0 0 20.032-50.048q0-63.168-73.472-63.232zM640 704h-59.776V548.48H411.52V704H352V345.6h59.52v150.656h168.704V345.6H640zM763.264 574.016V704H704V345.6h108.8a143.744 143.744 0 0 1 96 28.8 100.032 100.032 0 0 1 34.048 80.96 111.808 111.808 0 0 1-35.52 85.504 134.976 134.976 0 0 1-96 33.28z m0-179.2v130.688h38.4a84.992 84.992 0 0 0 58.24-17.728 63.36 63.36 0 0 0 20.032-50.048q0-63.168-73.472-63.232z" fill="#212121" p-id="26524"></path></svg>