<?xml version="1.0" standalone="no"?><!DOCTYPE svg PUBLIC "-//W3C//DTD SVG 1.1//EN" "http://www.w3.org/Graphics/SVG/1.1/DTD/svg11.dtd"><svg t="1727254422888" class="icon" viewBox="0 0 1024 1024" version="1.1" xmlns="http://www.w3.org/2000/svg" p-id="4270" xmlns:xlink="http://www.w3.org/1999/xlink" width="16" height="16"><path d="M480.256 16.384C219.648 16.384 8.192 227.84 8.192 488.448s211.456 472.064 472.064 472.064c260.608 0 472.064-211.456 472.064-472.064S740.864 16.384 480.256 16.384z m0 881.152c-225.792 0-409.088-183.296-409.088-409.088s183.296-409.088 409.088-409.088c225.792 0 409.088 183.296 409.088 409.088 0 226.304-182.784 409.088-409.088 409.088z" fill="" p-id="4271"></path><path d="M370.688 324.096h104.448c112.128 0 167.936 54.272 167.936 163.328 0 111.104-55.808 166.912-167.936 166.912H370.688V324.096z m43.52 290.816h59.904c47.616 0 80.384-11.264 97.792-33.28 17.408-22.016 26.112-53.76 26.112-94.208 0-39.424-8.704-70.144-26.112-91.648S521.728 363.52 474.112 363.52H414.208v251.392z" fill="" p-id="4272"></path></svg>