<svg xmlns="http://www.w3.org/2000/svg" width="400" height="400"><g fill-rule="evenodd"><path d="M0 200v200h194.4v-6.4H214c12.8 0 19.6-.139 19.6-.4 0-.22.36-.4.8-.4.44 0 .8.18.8.4 0 .259 5.067.4 14.4.4 12.848 0 15.894-.2 13.9-.912-.291-.104-.352-.327-.145-.533.206-.207.429-.146.533.145.208.582 6.512.725 6.512.148 0-.193 1.115-.432 2.477-.531 1.39-.101 2.546-.385 2.633-.648.086-.258.425-.469.752-.469.78 0 1.738-.977 1.738-1.771 0-.346.18-.629.4-.629.22 0 .4-.36.4-.8 0-.44.18-.8.4-.8.22 0 .4-.9.4-2s.18-2 .4-2c.587 0 .494-3.1-.1-3.312-.291-.104-.352-.327-.145-.533.206-.207.429-.146.533.145.689 1.929.912-.786.912-11.1 0-7.467-.143-11.6-.4-11.6-.22 0-.4-.283-.4-.629 0-.876-1.281-2.128-1.501-1.467-.316.946-.899.49-.899-.704 0-.66-.18-1.2-.4-1.2-.22 0-.4.36-.4.8 0 .44-.18.8-.4.8-.22 0-.4-.278-.4-.618 0-.34-.405-1.035-.9-1.545s-1.165-1.311-1.488-1.782c-.324-.47-.909-.855-1.3-.855-.392 0-.712-.18-.712-.4 0-.22.36-.4.8-.4.44 0 .8-.18.8-.4 0-.22-.54-.4-1.2-.4-1.194 0-1.65-.583-.704-.899.661-.22-.591-1.501-1.467-1.501-.346 0-.629-.18-.629-.4 0-.222-1.067-.4-2.4-.4s-2.4-.178-2.4-.4c0-.248-2.189-.4-5.767-.4-4.238 0-5.82-.133-5.969-.5-.153-.378-.316-.353-.664.1-.348.453-.511.478-.664.1-.114-.28-.891-.5-1.769-.5-.862 0-1.567-.18-1.567-.4 0-.22-.707-.4-1.571-.4-.865 0-1.842-.27-2.172-.6-.679-.679-1.857-.806-1.857-.2 0 .918-.719.307-.94-.8-.203-1.016-.426-1.2-1.45-1.2-.665 0-1.21-.18-1.21-.4 0-.22-.54-.4-1.2-.4-.66 0-1.2-.18-1.2-.4 0-.22.18-.4.4-.4.22 0 .4-.18.4-.4 0-.22-.823-.4-1.829-.4-1.605 0-2.971-.63-2.971-1.371 0-.458 1.538-.215 1.699.267.118.355.37.292.881-.219.393-.393.579-.842.413-.996-.166-.155-.383-.056-.481.219-.282.79-.912.582-.912-.3 0-.896-1.411-1.143-1.712-.3-.104.291-.327.352-.533.145-.207-.206-.146-.429.145-.533.275-.098.5-.524.5-.945 0-.742-.475-.767-14.4-.767H204v-1.6c0-.88-.18-1.6-.4-1.6-.22 0-.4-.36-.4-.8 0-.44-.18-.8-.4-.8-.22 0-.4-.32-.4-.712 0-.391-.382-.976-.849-1.3-.467-.323-1.084-.813-1.371-1.088-.288-.275-.806-.5-1.151-.5-.346 0-.629-.18-.629-.4 0-.22-.36-.4-.8-.4-.44 0-.8-.18-.8-.4 0-.22-.72-.4-1.6-.4-1.333 0-1.6-.133-1.6-.8 0-.533-.267-.8-.8-.8-.44 0-.8-.18-.8-.4 0-.264-12.467-.4-36.6-.4h-36.6V81.2h37.4c24.667 0 37.4-.136 37.4-.4 0-.222 1.067-.4 2.4-.4s2.4-.178 2.4-.4c0-.22.54-.4 1.2-.4.66 0 1.2-.18 1.2-.4 0-.22.278-.4.618-.4.8 0 2.582-1.782 2.582-2.582 0-.34.18-.618.4-.618.22 0 .4-.45.4-1s.18-1 .4-1c.222 0 .4-1.067.4-2.4v-2.4h28v-1.029c0-1.606.878-2.171 3.371-2.171 1.226 0 2.229-.18 2.229-.4 0-.22-.283-.4-.629-.4-.791 0-1.968-1.143-1.564-1.519.166-.155.383-.056.481.219.216.604 4.512.7 4.512.1 0-.22-.81-.4-1.8-.4-1.533 0-1.8-.119-1.8-.8 0-.44.18-.8.4-.8.22 0 .4.18.4.4 0 .22.36.4.8.4.44 0 .8-.18.8-.4 0-.22.282-.4.627-.4.413 0 .553-.238.409-.7-.255-.821.379-2.018.831-1.567.17.171.045.494-.279.719-.445.309-.466.458-.088.612.275.111.5.548.5.969 0 .5.278.767.8.767.59 0 .8-.267.8-1.018 0-2.019 1.601-2.98 5.284-3.172 1.817-.094 3.366-.36 3.443-.591.09-.269 2.485-.419 6.706-.419 4.111 0 6.567-.15 6.567-.4 0-.22.9-.4 2-.4s2-.18 2-.4c0-.58 1.5-.492 1.712.1.104.291.327.352.533.145.207-.206.146-.429-.145-.533-.79-.282-.582-.912.3-.912.44 0 .8.18.8.4 0 .22.27.4.6.4.767 0 .767-.576 0-1.343-.806-.806-.756-1.057.213-1.057 1.169 0 3.587-2.553 3.587-3.787 0-1.219.421-1.294 1.2-.213.735 1.02 1.2 1.02 1.2 0 0-.44-.18-.8-.4-.8-.22 0-.4-.36-.4-.8 0-.882.63-1.09.912-.3.104.291.327.352.533.145.207-.206.146-.429-.145-.533-.592-.212-.68-1.712-.1-1.712.258 0 .4-4.267.4-12s-.142-12-.4-12c-.22 0-.4-.72-.4-1.6 0-.88-.18-1.6-.4-1.6-.22 0-.4-.9-.4-2s-.18-2-.4-2c-.22 0-.4-.36-.4-.8 0-.44-.18-.8-.4-.8-.22 0-.4-.283-.4-.629 0-.808-.963-1.771-1.771-1.771-.346 0-.629-.18-.629-.4 0-.22-.255-.4-.567-.4-.311 0-.626-.179-.7-.398-.074-.221-2.582-.516-5.633-.662-3.025-.145-5.5-.416-5.5-.602S247.72 7.2 228.8 7.2h-34.4V0H0v200M354.8 20.8c0 .22.36.4.8.4.44 0 .8-.18.8-.4 0-.22-.36-.4-.8-.4-.44 0-.8.18-.8.4m2.4 0c0 .22.45.4 1 .4s1-.18 1-.4c0-.22-.45-.4-1-.4s-1 .18-1 .4m-9.14 1.842c-.729.824-.26 1.215.521.434.34-.34.619-.722.619-.847 0-.42-.594-.205-1.14.413M267.2 294.8c0 .22.54.4 1.2.4.66 0 1.2-.18 1.2-.4 0-.22-.54-.4-1.2-.4-.66 0-1.2.18-1.2.4m-14 .8c0 .22.72.4 1.6.4.88 0 1.6-.18 1.6-.4 0-.22-.72-.4-1.6-.4-.88 0-1.6.18-1.6.4m-4.8.8c0 .22.36.4.8.4.44 0 .8-.18.8-.4 0-.22-.36-.4-.8-.4-.44 0-.8.18-.8.4m-13.2 42.4c0 .22-.36.4-.8.4-.44 0-.8-.18-.8-.4 0-.22.36-.4.8-.4.44 0 .8.18.8.4m72 19.8c0 .33.18.6.4.6.22 0 .4-.27.4-.6 0-.33-.18-.6-.4-.6-.22 0-.4.27-.4.6m9.2 9.8c0 .22.36.4.8.4.44 0 .8-.18.8-.4 0-.22-.36-.4-.8-.4-.44 0-.8.18-.8.4m-46.8 12.367c0 .641-.225 1.247-.5 1.345-.275.098-.374.315-.219.481.376.404 1.519-.773 1.519-1.564 0-.785.29-.796 1.047-.039.52.52.324.857-1.657 2.838-1.237 1.236-2.354 2.142-2.483 2.012-.129-.129.154-.572.629-.984.787-.683 1.204-2.056.624-2.056-.131 0-.767.565-1.411 1.255-.645.69-1.28 1.148-1.411 1.017s.505-.952 1.412-1.824c1.097-1.054 1.65-1.931 1.65-2.617 0-.567.18-1.031.4-1.031.22 0 .4.525.4 1.167m6.8 1.415c0 .34-.18.618-.4.618-.22 0-.4.278-.4.617 0 .663-.217.962-2.469 3.396-.807.873-1.752 1.587-2.1 1.587-.347 0-.631.18-.631.4 0 .22-.345.4-.767.4-.421 0-.847.225-.945.5-.098.275-.315.374-.481.219-.404-.376.773-1.519 1.564-1.519.346 0 .629-.18.629-.4 0-.22.284-.4.631-.4.876 0 3.769-3.096 3.769-4.033 0-.422.18-.767.4-.767.606 0 .479-1.178-.2-1.857-.33-.33-.6-.775-.6-.99 0-.214.45.061 1 .611s1 1.278 1 1.618M360 380c0 .22.36.4.8.4.44 0 .8-.18.8-.4 0-.22-.36-.4-.8-.4-.44 0-.8.18-.8.4m-86.075 1.068c.486.486.532.713.171.833-.273.091-.496.427-.496.746 0 .691-2.572 3.353-3.24 3.353-.256 0-.803.389-1.216.864-.412.475-.857.756-.99.624-.132-.133 1.08-1.543 2.693-3.134 1.645-1.623 2.718-2.966 2.443-3.057-.269-.09-.49-.329-.49-.53 0-.547.378-.446 1.125.301m4.875 2.132c0 .66-.18 1.2-.4 1.2-.22 0-.4.36-.4.8 0 .44-.18.8-.4.8-.22 0-.4.276-.4.613 0 .686-2.542 3.387-3.187 3.387a.408.408 0 0 0-.413.4c0 .22-.36.4-.8.4-.44 0-.8.18-.8.4 0 .22-.54.4-1.2.4-.66 0-1.2-.18-1.2-.4 0-.22.54-.4 1.2-.4.66 0 1.2-.18 1.2-.4 0-.22.32-.4.712-.4.391 0 .971-.36 1.288-.8.317-.44.807-.8 1.088-.8.282 0 .512-.32.512-.712 0-.391.36-.971.8-1.288.44-.317.8-.897.8-1.288 0-.392.18-.712.4-.712.22 0 .4-.54.4-1.2 0-.66.18-1.2.4-1.2.22 0 .4.54.4 1.2m-25.6.8c0 .22-.36.4-.8.4-.44 0-.8-.18-.8-.4 0-.22.36-.4.8-.4.44 0 .8.18.8.4m4 .8c0 .22-.54.4-1.2.4-.66 0-1.2-.18-1.2-.4 0-.22.54-.4 1.2-.4.66 0 1.2.18 1.2.4" fill="#2c74ec"/><path d="M351.6 21.6c0 .22-.5.4-1.112.4-.653 0-1.349.33-1.688.8-.317.44-.82.8-1.117.8-.629 0-1.683.963-1.683 1.538 0 .217-.225.476-.5.574-.275.098-.376.312-.224.476.151.163.728-.127 1.28-.646 1.739-1.63 2.193-1.942 2.827-1.942.339 0 .617-.18.617-.4 0-.22.36-.4.8-.4.44 0 .8-.18.8-.4 0-.22.72-.4 1.6-.4.88 0 1.6.18 1.6.4 0 .22-.54.4-1.2.4-.66 0-1.2.18-1.2.4 0 .22-.283.4-.629.4-.345 0-.898.27-1.228.6-.33.33-.947.6-1.372.6-.472 0-.771.275-.771.712 0 .391-.36.971-.8 1.288-.44.317-.8.897-.8 1.288 0 .392-.18.712-.4.712-.22 0-.4.463-.4 1.029 0 2.123-.259 2.171-11.771 2.171-6.819 0-10.629.143-10.629.4 0 .22-.54.4-1.2.4-.66 0-1.2-.18-1.2-.4 0-.22-.36-.4-.8-.4-.533 0-.8.267-.8.8 0 .667-.267.8-1.6.8-.88 0-1.6-.18-1.6-.4 0-.22-.54-.4-1.2-.4-.66 0-1.2.18-1.2.4 0 .22.36.4.8.4.44 0 .8.18.8.4 0 .22-.54.4-1.2.4-.66 0-1.2.18-1.2.4 0 .22-.278.4-.618.4-.8 0-2.582 1.782-2.582 2.582 0 .34-.18.618-.4.618-.22 0-.4.54-.4 1.2 0 1.402-.656 1.611-.939.3-.107-.495-.098.315.019 1.8l.213 2.7h-10.046c-6.431 0-10.047.144-10.047.4 0 .22-.36.4-.8.4-.44 0-.8-.18-.8-.4 0-.22-.54-.4-1.2-.4-.933 0-1.2.178-1.2.8 0 .44-.18.8-.4.8-.22 0-.4-.18-.4-.4 0-.22-.36-.4-.8-.4-.879 0-1.093.636-.304.899.661.22-.591 1.501-1.467 1.501-.432 0-.629.376-.629 1.2 0 .66-.18 1.2-.4 1.2-.22 0-.4-.18-.4-.4 0-.22-.18-.4-.4-.4-.22 0-.4.638-.4 1.418 0 1.837-1.466 3.382-3.209 3.382-1.063 0-1.208.117-.991.8.209.658.072.8-.773.8-.76 0-1.027.208-1.027.8 0 .44-.18.8-.4.8-.22 0-.4-.36-.4-.8 0-.533-.267-.8-.8-.8-.44 0-.8.18-.8.4 0 .22.18.4.4.4.22 0 .4.18.4.4 0 .246-2 .4-5.2.4-2.86 0-5.2.158-5.2.351 0 .193-1.654.43-3.676.527-2.334.111-3.733.348-3.833.649-.087.26-.503.473-.924.473-.422 0-.767.18-.767.4 0 .22-.36.4-.8.4-.44 0-.8.18-.8.4 0 .22-.32.4-.712.4-.391 0-.971.36-1.288.8-.317.44-.897.8-1.288.8-.392 0-.712.283-.712.629 0 .944-1.014 1.771-2.171 1.771-.762 0-1.029.207-1.029.8 0 .587-.267.8-1 .8-.55 0-1 .18-1 .4 0 .58-1.5.492-1.713-.1-.122-.339-.437-.21-.98.4-.816.917-2.107 1.224-2.107.5 0-.22-.18-.4-.4-.4-.22 0-.4.283-.4.629 0 .768-1.135 1.97-1.507 1.597-.149-.148-.01-.43.307-.626s.456-.478.307-.626c-.364-.364-1.507.822-1.507 1.564 0 .327.225.676.5.775.339.122.21.437-.4.98-.9.801-1.262 2.907-.5 2.907.22 0 .4.45.4 1s-.18 1-.4 1c-.246 0-.4 2-.4 5.2s.154 5.2.4 5.2c.22 0 .4.36.4.8 0 .44-.18.8-.4.8-.22 0-.4.54-.4 1.2 0 .933.178 1.2.8 1.2.44 0 .8.18.8.4 0 .22-.18.4-.4.4-.752 0-.401.878.8 2 .738.689 1.2 1.521 1.2 2.16 0 .572.18 1.04.4 1.04.22 0 .4.32.4.712 0 .391.36.971.8 1.288.44.317.8.897.8 1.288 0 .416.296.712.712.712.391 0 .971.36 1.288.8.317.44.897.8 1.288.8.392 0 .712.18.712.4 0 .22.45.4 1 .4s1 .18 1 .4c0 .22.72.4 1.6.4.88 0 1.6.18 1.6.4 0 .229 1.2.4 2.8.4 1.6 0 2.8.171 2.8.4 0 .241 1.667.4 4.2.4 2.533 0 4.2-.159 4.2-.4 0-.856 7.761-.486 8.4.4.627.871 5.6 1.226 5.6.4 0-.22.9-.4 2-.4s2 .18 2 .4c0 .22.72.4 1.6.4h1.6v188h-2c-1.1 0-2 .18-2 .4 0 .22-.81.4-1.8.4s-1.8-.18-1.8-.4c0-.222-1.067-.4-2.4-.4s-2.4.178-2.4.4c0 .22-.54.4-1.2.4-.66 0-1.2.18-1.2.4 0 .229-1.2.4-2.8.4-1.6 0-2.8-.171-2.8-.4 0-.226-1.133-.4-2.6-.4s-2.6.174-2.6.4c0 .22.36.4.8.4.44 0 .8.18.8.4 0 .22-.72.4-1.6.4-.88 0-1.6-.18-1.6-.4 0-.222-1.067-.4-2.4-.4s-2.4.178-2.4.4c0 .22-.72.4-1.6.4-.88 0-1.6.18-1.6.4 0 .22-.54.4-1.2.4-.66 0-1.2.18-1.2.4 0 .22-.36.4-.8.4-.44 0-.8.18-.8.4 0 .22-.27.4-.6.4-.33 0-.6.18-.6.4 0 .22-.276.4-.613.4-.338 0-1.238.624-2 1.387-.763.762-1.387 1.662-1.387 2 0 .337-.18.613-.4.613-.22 0-.4.36-.4.8 0 .44-.18.8-.4.8-.22 0-.4.54-.4 1.2 0 .66-.18 1.2-.4 1.2-.22 0-.4-.18-.4-.4 0-.22-.36-.4-.8-.4-.889 0-1.077.606-.3.963.275.126.095.129-.4.006-.758-.188-.9-.06-.9.804 0 .565-.18 1.027-.4 1.027-.581 0-.492 2.291.1 2.567.4.186.4.28 0 .466-.37.173-.5 1.931-.5 6.767s.13 6.594.5 6.767c.4.186.4.28 0 .466-.867.405-.6 2.984.4 3.874.61.543.739.858.4.98-.775.278-.59.913.267.913.421 0 .871.225 1 .5.186.4.28.4.466 0 .363-.777.967-.589.967.3 0 .667.267.8 1.6.8.88 0 1.6.18 1.6.4 0 .22.36.4.8.4.533 0 .8.267.8.8 0 .669.267.8 1.629.8 1.692 0 2.771.69 2.771 1.771 0 .346.288.629.64.629.351 0 1.145.541 1.762 1.203.812.868 1.634 1.272 2.961 1.454 1.01.138 1.837.407 1.837.597s.705.346 1.567.346c.878 0 1.655.22 1.769.5.153.378.316.353.664-.1.348-.453.511-.478.664-.1.151.371 1.891.5 6.769.5 5.657 0 6.567.086 6.567.618 0 .972 1.859 2.582 2.982 2.582.56 0 1.018.18 1.018.4 0 .22.186.4.413.4.645 0 3.187 2.701 3.187 3.387 0 .337.18.613.4.613.22 0 .4.458.4 1.018 0 1.311 1.671 2.982 2.982 2.982.56 0 1.018-.18 1.018-.4 0-.22.18-.4.4-.4.22 0 .4.36.4.8 0 .533.267.8.8.8.44 0 .8-.18.8-.4 0-.22.36-.4.8-.4.44 0 .8.18.8.4 0 .256 3.667.4 10.2.4 9.786 0 10.2.031 10.2.767 0 .421.203.834.452.917.279.093.493 1.48.557 3.609.095 3.104.21 3.563 1.13 4.482 1.077 1.078 2.87 1.374 3.173.525.104-.291.327-.352.533-.145.207.206.146.429-.145.533-.942.337-.5.912.7.912.66 0 1.2-.18 1.2-.4 0-.22.36-.4.8-.4.44 0 .8.18.8.4 0 .22.36.4.8.4.44 0 .8.18.8.4 0 .22.54.4 1.2.4.66 0 1.2-.18 1.2-.4 0-.22.36-.4.8-.4.44 0 .8.18.8.4 0 .253 2.806.4 7.618.4 7.96 0 9.582.406 9.582 2.395 0 .546 2.636 3.205 3.178 3.205.223 0 1.395.99 2.605 2.2 1.503 1.503 2.519 2.2 3.208 2.2.555 0 1.009.18 1.009.4 0 .22.9.4 2 .4s2 .18 2 .4c0 .235 1.4.4 3.4.4s3.4-.165 3.4-.4c0-.22-.63-.4-1.4-.4-.77 0-1.4-.18-1.4-.4 0-.22.81-.4 1.8-.4s1.8.18 1.8.4c0 .22.9.4 2 .4s2-.18 2-.4c0-.22.54-.4 1.2-.4.66 0 1.2-.18 1.2-.4 0-.22.36-.4.8-.4.44 0 .8-.18.8-.4 0-.22.36-.4.8-.4.44 0 .8-.18.8-.4 0-.22.36-.4.8-.4.44 0 .8-.18.8-.4 0-.22.284-.4.631-.4.817 0 2.969-2.152 2.969-2.969 0-.347.18-.631.4-.631.22 0 .4-.36.4-.8 0-.44.18-.8.4-.8.22 0 .4-.36.4-.8 0-.766.267-.8 6.367-.8 4.702 0 6.427-.131 6.6-.5.186-.4.28-.4.466 0 .334.716 1.367.618 1.367-.129 0-1.367 1.043-1.771 4.571-1.771 3.162 0 3.429-.062 3.429-.8 0-.733-.267-.8-3.2-.8-1.867 0-3.2-.167-3.2-.4s1.333-.4 3.2-.4h3.2V36.8h-3.2c-1.867 0-3.2-.167-3.2-.4s1.333-.4 3.2-.4c2.933 0 3.2-.067 3.2-.8 0-.738-.267-.8-3.429-.8-3.528 0-4.571-.404-4.571-1.771 0-.747-1.033-.845-1.367-.129-.186.4-.28.4-.466 0-.17-.364-1.704-.5-5.629-.5-5.861 0-6.538-.225-6.538-2.171 0-.566-.18-1.029-.4-1.029-.22 0-.4-.32-.4-.712 0-.391-.36-.971-.8-1.288-.44-.317-.8-.877-.8-1.245 0-.379-.432-.777-1-.919-.55-.138-1-.428-1-.644 0-.215-.36-.392-.8-.392-.44 0-.8-.18-.8-.4 0-.22-.54-.4-1.2-.4-.66 0-1.2-.18-1.2-.4 0-.222-1.067-.4-2.4-.4s-2.4-.178-2.4-.4c0-.229-1.2-.4-2.8-.4-1.6 0-2.8.171-2.8.4 0 .22-.99.4-2.2.4-1.21 0-2.2-.18-2.2-.4 0-.22-.72-.4-1.6-.4-.88 0-1.6.18-1.6.4m13.2.8c0 .22.72.4 1.6.4.88 0 1.6.18 1.6.4 0 .22.54.4 1.2.4.66 0 1.2.164 1.2.365 0 .201.688.481 1.528.623.874.147 1.774.612 2.1 1.084.315.454.797 1.061 1.072 1.348.275.288.5.806.5 1.151 0 .346.18.629.4.629.22 0 .4.36.4.8 0 .44.18.8.4.8.22 0 .4.36.4.8 0 .473-.267.8-.653.8-.76 0-2.147-1.47-2.147-2.275 0-.702-2.602-3.325-3.298-3.325-.289 0-.784-.359-1.1-.798-.374-.518-1.246-.886-2.489-1.051-1.052-.14-1.913-.411-1.913-.603 0-.191-.54-.348-1.2-.348-.66 0-1.2-.18-1.2-.4 0-.22-.9-.4-2-.4s-2-.18-2-.4c0-.229 1.2-.4 2.8-.4 1.6 0 2.8.171 2.8.4m2.8 4c.317.44.811.8 1.097.8.627 0 5.071 4.365 4.76 4.676-.119.12-1.115-.703-2.211-1.829-1.097-1.126-2.236-2.047-2.532-2.047-.295 0-.797-.36-1.114-.8-.317-.44-.897-.8-1.288-.8-.392 0-.712-.18-.712-.4 0-.707 1.404-.426 2 .4m-56 7.6c0 .22-.283.4-.629.4-.808 0-1.771.963-1.771 1.771 0 .346-.18.629-.4.629-.22 0-.4.36-.4.8 0 .44.18.8.4.8.22 0 .4-.276.4-.613 0-.796 2.591-3.387 3.387-3.387.337 0 .613-.18.613-.4 0-.22-.36-.4-.8-.4-.44 0-.8.18-.8.4m-31.2 12c0 .533.267.8.8.8.947 0 1.004-.253.229-1.029-.776-.775-1.029-.718-1.029.229m-33.6 56c0 .22.36.4.8.4.44 0 .8.18.8.4 0 .594-1.173.484-1.829-.171-.67-.671-.729-1.029-.171-1.029.22 0 .4.18.4.4m4.8 1.6c0 .22-.54.4-1.2.4-.66 0-1.2-.18-1.2-.4 0-.22.54-.4 1.2-.4.66 0 1.2.18 1.2.4m4.8.8c0 .22-.9.4-2 .4s-2-.18-2-.4c0-.22.9-.4 2-.4s2 .18 2 .4m-3.2 192.8c0 .22-.72.4-1.6.4-.88 0-1.6.18-1.6.4 0 .22-.36.4-.8.4-.44 0-.8.18-.8.4 0 .22-.279.4-.619.4-.576 0-4.693 3.988-6.981 6.763-.663.804-1.371 1.217-2.1 1.225-1.301.014-1.404-.393-.3-1.188.44-.317.8-.813.8-1.102 0-.567 2.565-3.298 3.098-3.298.179 0 .585-.36.902-.8.317-.44.857-.8 1.2-.8.343 0 .883-.36 1.2-.8.317-.44.897-.8 1.288-.8.392 0 .712-.18.712-.4 0-.22.54-.4 1.2-.4.66 0 1.2-.18 1.2-.4 0-.22.72-.4 1.6-.4.88 0 1.6.18 1.6.4m19.6 48c0 .44-.18.8-.4.8-.22 0-.4-.36-.4-.8 0-.44.18-.8.4-.8.22 0 .4.36.4.8m8.4 8.4c0 .22-.36.4-.8.4-.44 0-.8-.18-.8-.4 0-.22.36-.4.8-.4.44 0 .8.18.8.4m29.461 11.424c.563.564.926 1.123.806 1.243-.218.217-2.267-1.635-2.267-2.049 0-.446.465-.19 1.461.806M375.6 369.2c0 .22-.177.4-.392.4-.216 0-.514.484-.663 1.076-.314 1.253-2.646 3.724-3.513 3.724-.328 0-1.046.45-1.596 1s-1.238 1-1.53 1c-.291 0-.789.36-1.106.8-.339.47-1.035.8-1.688.8-.612 0-1.112.18-1.112.4 0 .22-.54.4-1.2.4-.66 0-1.2-.18-1.2-.4 0-.22.54-.4 1.2-.4.66 0 1.2-.18 1.2-.4 0-.22.32-.4.712-.4.391 0 .971-.36 1.288-.8.317-.44.897-.8 1.288-.8.392 0 .712-.183.712-.406 0-.828 5.795-6.332 6.7-6.363.495-.017.9.149.9.369m-28 6.8c.617.66 1.409 1.2 1.76 1.2.352 0 .64.18.64.4 0 .22.54.4 1.2.4.66 0 1.2.18 1.2.4 0 .22-.54.4-1.2.4-.66 0-1.2-.18-1.2-.4 0-.22-.276-.4-.613-.4-.562 0-3.387-2.491-3.387-2.987 0-.48.541-.147 1.6.987m8.8 3.2c0 .22-.72.4-1.6.4-.88 0-1.6-.18-1.6-.4 0-.22.72-.4 1.6-.4.88 0 1.6.18 1.6.4m-80.34 7.442c-.729.824-.26 1.215.521.434.34-.34.619-.722.619-.847 0-.42-.594-.205-1.14.413m-1.96 2.381c-.589.64-.638.977-.143.977.341 0 .98-1.204.752-1.417-.06-.056-.334.142-.609.44m-40.5 4.177c0 .22.36.4.8.4.44 0 .8-.18.8-.4 0-.22-.36-.4-.8-.4-.44 0-.8.18-.8.4" fill="#2cea9c"/><path d="M354.8 21.6c0 .22-.72.4-1.6.4-.88 0-1.6.18-1.6.4 0 .22-.36.4-.8.4-.44 0-.8.18-.8.4 0 .22-.278.4-.617.4-.339 0-.834.179-1.1.399-2.368 1.954-3.083 2.826-3.083 3.761 0 .572-.18 1.04-.4 1.04-.22 0-.4.54-.4 1.2 0 .66-.18 1.2-.4 1.2-.22 0-.4.18-.4.4 0 .594 1.173.484 1.829-.171.314-.315.571-1.035.571-1.6 0-.566.18-1.029.4-1.029.22 0 .4-.32.4-.712 0-.391.36-.971.8-1.288.44-.317.8-.897.8-1.288 0-.437.299-.712.771-.712.425 0 1.042-.27 1.372-.6.33-.33.883-.6 1.228-.6.346 0 .629-.18.629-.4 0-.22.54-.4 1.2-.4.66 0 1.2-.18 1.2-.4 0-.22.99-.4 2.2-.4 1.21 0 2.2.18 2.2.4 0 .22.9.4 2 .4s2 .18 2 .4c0 .22.54.4 1.2.4.66 0 1.2.157 1.2.348 0 .192.861.463 1.913.603 1.243.165 2.115.533 2.489 1.051.316.439.811.798 1.1.798.696 0 3.298 2.623 3.298 3.325 0 .805 1.387 2.275 2.147 2.275.386 0 .653-.327.653-.8 0-.44-.18-.8-.4-.8-.22 0-.4-.36-.4-.8 0-.44-.18-.8-.4-.8-.22 0-.4-.283-.4-.629 0-.345-.225-.863-.5-1.151a13.563 13.563 0 0 1-1.072-1.348c-.326-.472-1.226-.937-2.1-1.084-.84-.142-1.528-.422-1.528-.623s-.54-.365-1.2-.365c-.66 0-1.2-.18-1.2-.4 0-.22-.72-.4-1.6-.4-.88 0-1.6-.18-1.6-.4 0-.229-1.2-.4-2.8-.4-1.6 0-2.8-.171-2.8-.4 0-.22-.99-.4-2.2-.4-1.21 0-2.2.18-2.2.4m10.8 4.4c0 .22.32.4.712.4.391 0 .971.36 1.288.8.317.44.819.8 1.114.8.296 0 1.435.921 2.532 2.047 1.096 1.126 2.092 1.949 2.211 1.829.311-.311-4.133-4.676-4.76-4.676-.286 0-.78-.36-1.097-.8-.596-.826-2-1.107-2-.4m-44.4 6.4c0 .22.54.4 1.2.4.66 0 1.2-.18 1.2-.4 0-.22-.54-.4-1.2-.4-.66 0-1.2.18-1.2.4m-4.8.8c0 .22.72.4 1.6.4.88 0 1.6-.18 1.6-.4 0-.22-.72-.4-1.6-.4-.88 0-1.6.18-1.6.4m75.6-.171c0 .424 1.236 1.468 1.467 1.238.125-.126-.05-.507-.391-.848-.635-.635-1.076-.795-1.076-.39M313.2 34c0 .22-.276.4-.613.4-.796 0-3.387 2.591-3.387 3.387 0 .337-.18.613-.4.613-.22 0-.4.54-.4 1.2 0 .66.18 1.2.4 1.2.22 0 .4-.54.4-1.2 0-.66.18-1.2.4-1.2.22 0 .4-.278.4-.618 0-.8 1.782-2.582 2.582-2.582.34 0 .618-.18.618-.4 0-.22.54-.4 1.2-.4.66 0 1.2-.18 1.2-.4 0-.22-.54-.4-1.2-.4-.66 0-1.2.18-1.2.4m80.4 2.4c0 .233 1.333.4 3.2.4 1.867 0 3.2-.167 3.2-.4s-1.333-.4-3.2-.4c-1.867 0-3.2.167-3.2.4M308.101 43c.004.88.086 1.193.182.695.096-.497.092-1.217-.008-1.6-.1-.382-.179.025-.174.905M286.8 44.8c0 .22.36.4.8.4.44 0 .8-.18.8-.4 0-.22-.36-.4-.8-.4-.44 0-.8.18-.8.4m-5.14 1.842c-.729.824-.26 1.215.521.434.34-.34.619-.722.619-.847 0-.42-.594-.205-1.14.413m-2.06.958c0 .44.18.8.4.8.22 0 .4-.36.4-.8 0-.44-.18-.8-.4-.8-.22 0-.4.36-.4.8m-1.6 1.813c0 1.234-2.418 3.787-3.587 3.787-.447 0-.813.18-.813.4 0 .869 3.21.427 4.218-.582 1.016-1.015 1.47-4.618.582-4.618-.22 0-.4.456-.4 1.013m-6 5.787c0 .22.36.4.8.4.44 0 .8-.18.8-.4 0-.22-.36-.4-.8-.4-.44 0-.8.18-.8.4m-18.873 2.419c-.077.231-1.626.497-3.443.591-3.683.192-5.284 1.153-5.284 3.172 0 .751-.21 1.018-.8 1.018-.522 0-.8-.267-.8-.767 0-.421-.225-.858-.5-.969-.378-.154-.357-.303.088-.612.324-.225.449-.548.279-.719-.452-.451-1.086.746-.831 1.567.144.462.004.7-.409.7-.345 0-.627.18-.627.4 0 .22-.36.4-.8.4-.44 0-.8-.18-.8-.4 0-.22-.18-.4-.4-.4-.22 0-.4.36-.4.8 0 .681.267.8 1.8.8.99 0 1.8.18 1.8.4 0 .6-4.296.504-4.512-.1-.098-.275-.315-.374-.481-.219-.404.376.773 1.519 1.564 1.519.346 0 .629.18.629.4 0 .22-1.003.4-2.229.4-2.293 0-3.371.566-3.371 1.771 0 .747 1.442.854 1.736.129.153-.378.316-.353.664.1.348.453.511.478.664.1.111-.275.533-.5.936-.5s.838-.225.967-.5c.186-.4.28-.4.466 0 .277.593 1.767.677 1.767.1 0-.22.45-.4 1-.4.733 0 1-.213 1-.8 0-.593.267-.8 1.029-.8 1.157 0 2.171-.827 2.171-1.771 0-.346.32-.629.712-.629.391 0 .971-.36 1.288-.8.317-.44.897-.8 1.288-.8.392 0 .712-.18.712-.4 0-.22.36-.4.8-.4.44 0 .8-.18.8-.4 0-.22.345-.4.767-.4.421 0 .837-.213.924-.473.1-.301 1.499-.538 3.833-.649 2.022-.097 3.676-.334 3.676-.527 0-.51-7.502-.444-7.673.068M232 75.4c0 .55.18 1 .4 1 .22 0 .4-.45.4-1s-.18-1-.4-1c-.22 0-.4.45-.4 1m0 12.2c0 .44.18.8.4.8.22 0 .4-.36.4-.8 0-.44-.18-.8-.4-.8-.22 0-.4.36-.4.8m14 14.229c0 .125.257.485.571.8.656.655 1.829.765 1.829.171 0-.22-.36-.4-.8-.4-.44 0-.8-.18-.8-.4 0-.22-.18-.4-.4-.4-.22 0-.4.103-.4.229m3.2 1.771c0 .22.54.4 1.2.4.66 0 1.2-.18 1.2-.4 0-.22-.54-.4-1.2-.4-.66 0-1.2.18-1.2.4m3.2.8c0 .22.9.4 2 .4s2-.18 2-.4c0-.22-.9-.4-2-.4s-2 .18-2 .4m8.4.8c0 .24 1.6.4 4 .4s4-.16 4-.4c0-.24-1.6-.4-4-.4s-4 .16-4 .4m14 .8c0 .22.9.4 2 .4s2-.18 2-.4c0-.22-.9-.4-2-.4s-2 .18-2 .4m-.4 188.8c0 .22.81.4 1.8.4s1.8-.18 1.8-.4c0-.22-.81-.4-1.8-.4s-1.8.18-1.8.4m-12.8.8c0 .229 1.2.4 2.8.4 1.6 0 2.8-.171 2.8-.4s-1.2-.4-2.8-.4c-1.6 0-2.8.171-2.8.4m-6.8.8c0 .22.72.4 1.6.4.88 0 1.6-.18 1.6-.4 0-.22-.72-.4-1.6-.4-.88 0-1.6.18-1.6.4m-4.8.8c0 .22-.54.4-1.2.4-.66 0-1.2.18-1.2.4 0 .22-.32.4-.712.4-.391 0-.971.36-1.288.8-.317.44-.857.8-1.2.8-.343 0-.883.36-1.2.8-.317.44-.723.8-.902.8-.533 0-3.098 2.731-3.098 3.298 0 .289-.36.785-.8 1.102-1.104.795-1.001 1.202.3 1.188.729-.008 1.437-.421 2.1-1.225 2.288-2.775 6.405-6.763 6.981-6.763.34 0 .619-.18.619-.4 0-.22.36-.4.8-.4.44 0 .8-.18.8-.4 0-.22.72-.4 1.6-.4.88 0 1.6-.18 1.6-.4 0-.22-.72-.4-1.6-.4-.88 0-1.6.18-1.6.4m-17.54 36.242c-.298.336-.408.734-.246.884.163.151.376.049.474-.226.301-.843 1.712-.596 1.712.3 0 .44.103.8.229.8.469 0 1.371-1.165 1.371-1.771 0-.751-.637-.835-.967-.129-.186.4-.28.4-.466 0-.318-.68-1.448-.604-2.107.142m2.994 1.863c-.506.607-.806.734-.933.395-.182-.486-1.721-.729-1.721-.271 0 .741 1.366 1.371 2.971 1.371 1.006 0 1.829.18 1.829.4 0 .22-.18.4-.4.4-.22 0-.4.18-.4.4 0 .22.54.4 1.2.4.66 0 1.2.18 1.2.4 0 .22.545.4 1.21.4 1.024 0 1.247.184 1.45 1.2.221 1.107.94 1.718.94.8 0-.606 1.178-.479 1.857.2.33.33 1.307.6 2.172.6.864 0 1.571.18 1.571.4 0 .22.72.4 1.6.4.88 0 1.6.18 1.6.4 0 .22.18.4.4.4 1.469 0 .219-1.516-1.437-1.743-1.327-.182-2.149-.586-2.961-1.454-.617-.662-1.411-1.203-1.762-1.203a.636.636 0 0 1-.64-.629c0-1.081-1.079-1.771-2.771-1.771-1.362 0-1.629-.131-1.629-.8 0-.533-.267-.8-.8-.8-.44 0-.8-.18-.8-.4 0-.824-2.972-.423-3.746.505M233.6 338.8c0 .22.36.4.8.4.44 0 .8-.18.8-.4 0-.22-.36-.4-.8-.4-.44 0-.8.18-.8.4m19.6 4.4c0 .22.54.4 1.2.4.66 0 1.2-.18 1.2-.4 0-.22-.54-.4-1.2-.4-.66 0-1.2.18-1.2.4m18.8 2c0 .44.18.8.4.8.22 0 .4-.36.4-.8 0-.44-.18-.8-.4-.8-.22 0-.4.36-.4.8m-.8 2c0 .22.54.4 1.2.4.66 0 1.2.18 1.2.4 0 .22-.36.4-.8.4-.44 0-.8.18-.8.4 0 .22.32.4.712.4.391 0 .976.385 1.3.855.323.471.993 1.272 1.488 1.782s.9 1.205.9 1.545c0 .34.18.618.4.618.22 0 .4-.36.4-.8 0-.44.18-.8.4-.8.22 0 .4.54.4 1.2 0 .66.18 1.2.4 1.2.22 0 .4-.72.4-1.6 0-.88-.18-1.6-.4-1.6-.22 0-.4-.276-.4-.613 0-.686-2.542-3.387-3.187-3.387a.408.408 0 0 1-.413-.4c0-.22-.72-.4-1.6-.4-.88 0-1.6.18-1.6.4m8.4 6.4c0 .22.36.4.8.4.44 0 .8-.18.8-.4 0-.22-.36-.4-.8-.4-.44 0-.8.18-.8.4m5.6 2.4c0 .22.36.4.8.4.44 0 .8-.18.8-.4 0-.22-.36-.4-.8-.4-.44 0-.8.18-.8.4m24 8.218c0 .414 2.049 2.266 2.267 2.049.12-.12-.243-.679-.806-1.243-.996-.996-1.461-1.252-1.461-.806m84.4.182c0 .233 1.333.4 3.2.4 1.867 0 3.2-.167 3.2-.4s-1.333-.4-3.2-.4c-1.867 0-3.2.167-3.2.4m-1.14 2.642c-.729.824-.26 1.215.521.434.34-.34.619-.722.619-.847 0-.42-.594-.205-1.14.413m-77.66.558c0 .22.36.4.8.4.44 0 .8-.18.8-.4 0-.22-.36-.4-.8-.4-.44 0-.8.18-.8.4m5.6.8c0 .22.36.4.8.4.44 0 .8-.18.8-.4 0-.22-.36-.4-.8-.4-.44 0-.8.18-.8.4m50.5 3.425c-1.595 1.63-2.9 3.146-2.9 3.369 0 .223-.32.406-.712.406-.391 0-.971.36-1.288.8-.317.44-.897.8-1.288.8-.392 0-.712.18-.712.4 0 .22-.54.4-1.2.4-.66 0-1.2.18-1.2.4 0 .22.54.4 1.2.4.66 0 1.2-.18 1.2-.4 0-.22.5-.4 1.112-.4.653 0 1.349-.33 1.688-.8.317-.44.815-.8 1.106-.8.292 0 .98-.45 1.53-1s1.268-1 1.596-1c.867 0 3.199-2.471 3.513-3.724.149-.592.447-1.076.663-1.076.215 0 .392-.18.392-.4 0-1.227-2.052-.081-4.7 2.625m-24.9 3.188c0 .496 2.825 2.987 3.387 2.987.337 0 .613.18.613.4 0 .22.54.4 1.2.4.66 0 1.2-.18 1.2-.4 0-.22-.54-.4-1.2-.4-.66 0-1.2-.18-1.2-.4 0-.22-.288-.4-.64-.4-.351 0-1.143-.54-1.76-1.2-1.059-1.134-1.6-1.467-1.6-.987m7.2 4.187c0 .22.72.4 1.6.4.88 0 1.6-.18 1.6-.4 0-.22-.72-.4-1.6-.4-.88 0-1.6.18-1.6.4m4 0c0 .22.81.4 1.8.4s1.8-.18 1.8-.4c0-.22-.81-.4-1.8-.4s-1.8.18-1.8.4m-88.4 1.431c0 .686-.553 1.563-1.65 2.617-.907.872-1.543 1.693-1.412 1.824s.766-.327 1.411-1.017c.644-.69 1.28-1.255 1.411-1.255.58 0 .163 1.373-.624 2.056-.475.412-.758.855-.629.984.129.13 1.246-.776 2.483-2.012 1.981-1.981 2.177-2.318 1.657-2.838-.757-.757-1.047-.746-1.047.039 0 .791-1.143 1.968-1.519 1.564-.155-.166-.056-.383.219-.481.591-.211.683-2.512.1-2.512-.22 0-.4.464-.4 1.031m5.6-.678c0 .215.27.66.6.99.679.679.806 1.857.2 1.857-.22 0-.4.345-.4.767 0 .937-2.893 4.033-3.769 4.033-.347 0-.631.18-.631.4 0 .22-.283.4-.629.4-.791 0-1.968 1.143-1.564 1.519.166.155.383.056.481-.219.098-.275.524-.5.945-.5.422 0 .767-.18.767-.4 0-.22.284-.4.631-.4.348 0 1.293-.714 2.1-1.587 2.252-2.434 2.469-2.733 2.469-3.396 0-.339.18-.617.4-.617.738 0 .409-1.227-.6-2.236-.55-.55-1-.825-1-.611m-1.6.814c0 .201.221.44.49.53.275.091-.798 1.434-2.443 3.057-1.613 1.591-2.825 3.001-2.693 3.134.133.132.578-.149.99-.624.413-.475.96-.864 1.216-.864.668 0 3.24-2.662 3.24-3.353 0-.319.223-.655.496-.746.361-.12.315-.347-.171-.833-.747-.747-1.125-.848-1.125-.301m5.2 2.833c0 .44.18.8.4.8.22 0 .4-.36.4-.8 0-.44-.18-.8-.4-.8-.22 0-.4.36-.4.8m-26.4.4c0 .22.36.4.8.4.44 0 .8-.18.8-.4 0-.22-.36-.4-.8-.4-.44 0-.8.18-.8.4m3.2.8c0 .22.54.4 1.2.4.66 0 1.2-.18 1.2-.4 0-.22-.54-.4-1.2-.4-.66 0-1.2.18-1.2.4m20.7 3.266c-1.587 1.781-1.355 2.215.3.561.77-.77 1.4-1.496 1.4-1.614 0-.513-.681-.091-1.7 1.053m-5.1 3.134c0 .22.36.4.8.4.44 0 .8-.18.8-.4 0-.22-.36-.4-.8-.4-.44 0-.8.18-.8.4" fill="#2c90f0"/><path d="M354.8 21.6c0 .22-.72.4-1.6.4-.88 0-1.6.18-1.6.4 0 .22-.36.4-.8.4-.44 0-.8.18-.8.4 0 .22-.278.4-.617.4-.339 0-.834.179-1.1.399-2.368 1.954-3.083 2.826-3.083 3.761 0 .572-.18 1.04-.4 1.04-.22 0-.4.54-.4 1.2 0 .66-.18 1.2-.4 1.2-.22 0-.4.18-.4.4 0 .594 1.173.484 1.829-.171.314-.315.571-1.035.571-1.6 0-.566.18-1.029.4-1.029.22 0 .4-.32.4-.712 0-.391.36-.971.8-1.288.44-.317.8-.897.8-1.288 0-.437.299-.712.771-.712.425 0 1.042-.27 1.372-.6.33-.33.883-.6 1.228-.6.346 0 .629-.18.629-.4 0-.22.54-.4 1.2-.4.66 0 1.2-.18 1.2-.4 0-.22.99-.4 2.2-.4 1.21 0 2.2.18 2.2.4 0 .22.9.4 2 .4s2 .18 2 .4c0 .22.54.4 1.2.4.66 0 1.2.157 1.2.348 0 .192.861.463 1.913.603 1.243.165 2.115.533 2.489 1.051.316.439.811.798 1.1.798.696 0 3.298 2.623 3.298 3.325 0 .805 1.387 2.275 2.147 2.275.386 0 .653-.327.653-.8 0-.44-.18-.8-.4-.8-.22 0-.4-.36-.4-.8 0-.44-.18-.8-.4-.8-.22 0-.4-.283-.4-.629 0-.345-.225-.863-.5-1.151a13.563 13.563 0 0 1-1.072-1.348c-.326-.472-1.226-.937-2.1-1.084-.84-.142-1.528-.422-1.528-.623s-.54-.365-1.2-.365c-.66 0-1.2-.18-1.2-.4 0-.22-.72-.4-1.6-.4-.88 0-1.6-.18-1.6-.4 0-.229-1.2-.4-2.8-.4-1.6 0-2.8-.171-2.8-.4 0-.22-.99-.4-2.2-.4-1.21 0-2.2.18-2.2.4m10.8 4.4c0 .22.32.4.712.4.391 0 .971.36 1.288.8.317.44.819.8 1.114.8.296 0 1.435.921 2.532 2.047 1.096 1.126 2.092 1.949 2.211 1.829.311-.311-4.133-4.676-4.76-4.676-.286 0-.78-.36-1.097-.8-.596-.826-2-1.107-2-.4m-44.4 6.4c0 .22.54.4 1.2.4.66 0 1.2-.18 1.2-.4 0-.22-.54-.4-1.2-.4-.66 0-1.2.18-1.2.4m-4.8.8c0 .22.72.4 1.6.4.88 0 1.6-.18 1.6-.4 0-.22-.72-.4-1.6-.4-.88 0-1.6.18-1.6.4m75.6-.171c0 .424 1.236 1.468 1.467 1.238.125-.126-.05-.507-.391-.848-.635-.635-1.076-.795-1.076-.39M313.2 34c0 .22-.276.4-.613.4-.796 0-3.387 2.591-3.387 3.387 0 .337-.18.613-.4.613-.22 0-.4.54-.4 1.2 0 .66.18 1.2.4 1.2.22 0 .4-.54.4-1.2 0-.66.18-1.2.4-1.2.22 0 .4-.278.4-.618 0-.8 1.782-2.582 2.582-2.582.34 0 .618-.18.618-.4 0-.22.54-.4 1.2-.4.66 0 1.2-.18 1.2-.4 0-.22-.54-.4-1.2-.4-.66 0-1.2.18-1.2.4m80.4 2.4c0 .233 1.333.4 3.2.4 1.867 0 3.2-.167 3.2-.4s-1.333-.4-3.2-.4c-1.867 0-3.2.167-3.2.4M308.101 43c.004.88.086 1.193.182.695.096-.497.092-1.217-.008-1.6-.1-.382-.179.025-.174.905M286.8 44.8c0 .22.36.4.8.4.44 0 .8-.18.8-.4 0-.22-.36-.4-.8-.4-.44 0-.8.18-.8.4m-5.14 1.842c-.729.824-.26 1.215.521.434.34-.34.619-.722.619-.847 0-.42-.594-.205-1.14.413m-2.06.958c0 .44.18.8.4.8.22 0 .4-.36.4-.8 0-.44-.18-.8-.4-.8-.22 0-.4.36-.4.8m-1.6 1.813c0 1.234-2.418 3.787-3.587 3.787-.447 0-.813.18-.813.4 0 .869 3.21.427 4.218-.582 1.016-1.015 1.47-4.618.582-4.618-.22 0-.4.456-.4 1.013m-6 5.787c0 .22.36.4.8.4.44 0 .8-.18.8-.4 0-.22-.36-.4-.8-.4-.44 0-.8.18-.8.4m-18.873 2.419c-.077.231-1.626.497-3.443.591-3.683.192-5.284 1.153-5.284 3.172 0 .751-.21 1.018-.8 1.018-.522 0-.8-.267-.8-.767 0-.421-.225-.858-.5-.969-.378-.154-.357-.303.088-.612.324-.225.449-.548.279-.719-.452-.451-1.086.746-.831 1.567.144.462.004.7-.409.7-.345 0-.627.18-.627.4 0 .22-.36.4-.8.4-.44 0-.8-.18-.8-.4 0-.22-.18-.4-.4-.4-.22 0-.4.36-.4.8 0 .681.267.8 1.8.8.99 0 1.8.18 1.8.4 0 .6-4.296.504-4.512-.1-.098-.275-.315-.374-.481-.219-.404.376.773 1.519 1.564 1.519.346 0 .629.18.629.4 0 .22-1.003.4-2.229.4-2.293 0-3.371.566-3.371 1.771 0 .747 1.442.854 1.736.129.153-.378.316-.353.664.1.348.453.511.478.664.1.111-.275.533-.5.936-.5s.838-.225.967-.5c.186-.4.28-.4.466 0 .277.593 1.767.677 1.767.1 0-.22.45-.4 1-.4.733 0 1-.213 1-.8 0-.593.267-.8 1.029-.8 1.157 0 2.171-.827 2.171-1.771 0-.346.32-.629.712-.629.391 0 .971-.36 1.288-.8.317-.44.897-.8 1.288-.8.392 0 .712-.18.712-.4 0-.22.36-.4.8-.4.44 0 .8-.18.8-.4 0-.22.345-.4.767-.4.421 0 .837-.213.924-.473.1-.301 1.499-.538 3.833-.649 2.022-.097 3.676-.334 3.676-.527 0-.51-7.502-.444-7.673.068M232 75.4c0 .55.18 1 .4 1 .22 0 .4-.45.4-1s-.18-1-.4-1c-.22 0-.4.45-.4 1m0 12.2c0 .44.18.8.4.8.22 0 .4-.36.4-.8 0-.44-.18-.8-.4-.8-.22 0-.4.36-.4.8m14 14.229c0 .125.257.485.571.8.656.655 1.829.765 1.829.171 0-.22-.36-.4-.8-.4-.44 0-.8-.18-.8-.4 0-.22-.18-.4-.4-.4-.22 0-.4.103-.4.229m3.2 1.771c0 .22.54.4 1.2.4.66 0 1.2-.18 1.2-.4 0-.22-.54-.4-1.2-.4-.66 0-1.2.18-1.2.4m3.2.8c0 .22.9.4 2 .4s2-.18 2-.4c0-.22-.9-.4-2-.4s-2 .18-2 .4m8.4.8c0 .24 1.6.4 4 .4s4-.16 4-.4c0-.24-1.6-.4-4-.4s-4 .16-4 .4m14 .8c0 .22.9.4 2 .4s2-.18 2-.4c0-.22-.9-.4-2-.4s-2 .18-2 .4m-.4 188.8c0 .22.81.4 1.8.4s1.8-.18 1.8-.4c0-.22-.81-.4-1.8-.4s-1.8.18-1.8.4m-12.8.8c0 .229 1.2.4 2.8.4 1.6 0 2.8-.171 2.8-.4s-1.2-.4-2.8-.4c-1.6 0-2.8.171-2.8.4m-6.8.8c0 .22.72.4 1.6.4.88 0 1.6-.18 1.6-.4 0-.22-.72-.4-1.6-.4-.88 0-1.6.18-1.6.4m-4.8.8c0 .22-.54.4-1.2.4-.66 0-1.2.18-1.2.4 0 .22-.32.4-.712.4-.391 0-.971.36-1.288.8-.317.44-.857.8-1.2.8-.343 0-.883.36-1.2.8-.317.44-.723.8-.902.8-.533 0-3.098 2.731-3.098 3.298 0 .289-.36.785-.8 1.102-1.104.795-1.001 1.202.3 1.188.729-.008 1.437-.421 2.1-1.225 2.288-2.775 6.405-6.763 6.981-6.763.34 0 .619-.18.619-.4 0-.22.36-.4.8-.4.44 0 .8-.18.8-.4 0-.22.72-.4 1.6-.4.88 0 1.6-.18 1.6-.4 0-.22-.72-.4-1.6-.4-.88 0-1.6.18-1.6.4m-17.54 36.242c-.298.336-.408.734-.246.884.163.151.376.049.474-.226.301-.843 1.712-.596 1.712.3 0 .44.103.8.229.8.469 0 1.371-1.165 1.371-1.771 0-.751-.637-.835-.967-.129-.186.4-.28.4-.466 0-.318-.68-1.448-.604-2.107.142m2.994 1.863c-.506.607-.806.734-.933.395-.182-.486-1.721-.729-1.721-.271 0 .741 1.366 1.371 2.971 1.371 1.006 0 1.829.18 1.829.4 0 .22-.18.4-.4.4-.22 0-.4.18-.4.4 0 .22.54.4 1.2.4.66 0 1.2.18 1.2.4 0 .22.545.4 1.21.4 1.024 0 1.247.184 1.45 1.2.221 1.107.94 1.718.94.8 0-.606 1.178-.479 1.857.2.33.33 1.307.6 2.172.6.864 0 1.571.18 1.571.4 0 .22.72.4 1.6.4.88 0 1.6.18 1.6.4 0 .22.18.4.4.4 1.469 0 .219-1.516-1.437-1.743-1.327-.182-2.149-.586-2.961-1.454-.617-.662-1.411-1.203-1.762-1.203a.636.636 0 0 1-.64-.629c0-1.081-1.079-1.771-2.771-1.771-1.362 0-1.629-.131-1.629-.8 0-.533-.267-.8-.8-.8-.44 0-.8-.18-.8-.4 0-.824-2.972-.423-3.746.505M233.6 338.8c0 .22.36.4.8.4.44 0 .8-.18.8-.4 0-.22-.36-.4-.8-.4-.44 0-.8.18-.8.4m19.6 4.4c0 .22.54.4 1.2.4.66 0 1.2-.18 1.2-.4 0-.22-.54-.4-1.2-.4-.66 0-1.2.18-1.2.4m18.8 2c0 .44.18.8.4.8.22 0 .4-.36.4-.8 0-.44-.18-.8-.4-.8-.22 0-.4.36-.4.8m-.8 2c0 .22.54.4 1.2.4.66 0 1.2.18 1.2.4 0 .22-.36.4-.8.4-.44 0-.8.18-.8.4 0 .22.32.4.712.4.391 0 .976.385 1.3.855.323.471.993 1.272 1.488 1.782s.9 1.205.9 1.545c0 .34.18.618.4.618.22 0 .4-.36.4-.8 0-.44.18-.8.4-.8.22 0 .4.54.4 1.2 0 .66.18 1.2.4 1.2.22 0 .4-.72.4-1.6 0-.88-.18-1.6-.4-1.6-.22 0-.4-.276-.4-.613 0-.686-2.542-3.387-3.187-3.387a.408.408 0 0 1-.413-.4c0-.22-.72-.4-1.6-.4-.88 0-1.6.18-1.6.4m8.4 6.4c0 .22.36.4.8.4.44 0 .8-.18.8-.4 0-.22-.36-.4-.8-.4-.44 0-.8.18-.8.4m5.6 2.4c0 .22.36.4.8.4.44 0 .8-.18.8-.4 0-.22-.36-.4-.8-.4-.44 0-.8.18-.8.4m24 8.218c0 .414 2.049 2.266 2.267 2.049.12-.12-.243-.679-.806-1.243-.996-.996-1.461-1.252-1.461-.806m84.4.182c0 .233 1.333.4 3.2.4 1.867 0 3.2-.167 3.2-.4s-1.333-.4-3.2-.4c-1.867 0-3.2.167-3.2.4m-1.14 2.642c-.729.824-.26 1.215.521.434.34-.34.619-.722.619-.847 0-.42-.594-.205-1.14.413m-77.66.558c0 .22.36.4.8.4.44 0 .8-.18.8-.4 0-.22-.36-.4-.8-.4-.44 0-.8.18-.8.4m5.6.8c0 .22.36.4.8.4.44 0 .8-.18.8-.4 0-.22-.36-.4-.8-.4-.44 0-.8.18-.8.4m50.5 3.425c-1.595 1.63-2.9 3.146-2.9 3.369 0 .223-.32.406-.712.406-.391 0-.971.36-1.288.8-.317.44-.897.8-1.288.8-.392 0-.712.18-.712.4 0 .22-.54.4-1.2.4-.66 0-1.2.18-1.2.4 0 .22.54.4 1.2.4.66 0 1.2-.18 1.2-.4 0-.22.5-.4 1.112-.4.653 0 1.349-.33 1.688-.8.317-.44.815-.8 1.106-.8.292 0 .98-.45 1.53-1s1.268-1 1.596-1c.867 0 3.199-2.471 3.513-3.724.149-.592.447-1.076.663-1.076.215 0 .392-.18.392-.4 0-1.227-2.052-.081-4.7 2.625m-24.9 3.188c0 .496 2.825 2.987 3.387 2.987.337 0 .613.18.613.4 0 .22.54.4 1.2.4.66 0 1.2-.18 1.2-.4 0-.22-.54-.4-1.2-.4-.66 0-1.2-.18-1.2-.4 0-.22-.288-.4-.64-.4-.351 0-1.143-.54-1.76-1.2-1.059-1.134-1.6-1.467-1.6-.987m7.2 4.187c0 .22.72.4 1.6.4.88 0 1.6-.18 1.6-.4 0-.22-.72-.4-1.6-.4-.88 0-1.6.18-1.6.4m4 0c0 .22.81.4 1.8.4s1.8-.18 1.8-.4c0-.22-.81-.4-1.8-.4s-1.8.18-1.8.4m-88.4 1.431c0 .686-.553 1.563-1.65 2.617-.907.872-1.543 1.693-1.412 1.824s.766-.327 1.411-1.017c.644-.69 1.28-1.255 1.411-1.255.58 0 .163 1.373-.624 2.056-.475.412-.758.855-.629.984.129.13 1.246-.776 2.483-2.012 1.981-1.981 2.177-2.318 1.657-2.838-.757-.757-1.047-.746-1.047.039 0 .791-1.143 1.968-1.519 1.564-.155-.166-.056-.383.219-.481.591-.211.683-2.512.1-2.512-.22 0-.4.464-.4 1.031m5.6-.678c0 .215.27.66.6.99.679.679.806 1.857.2 1.857-.22 0-.4.345-.4.767 0 .937-2.893 4.033-3.769 4.033-.347 0-.631.18-.631.4 0 .22-.283.4-.629.4-.791 0-1.968 1.143-1.564 1.519.166.155.383.056.481-.219.098-.275.524-.5.945-.5.422 0 .767-.18.767-.4 0-.22.284-.4.631-.4.348 0 1.293-.714 2.1-1.587 2.252-2.434 2.469-2.733 2.469-3.396 0-.339.18-.617.4-.617.738 0 .409-1.227-.6-2.236-.55-.55-1-.825-1-.611m-1.6.814c0 .201.221.44.49.53.275.091-.798 1.434-2.443 3.057-1.613 1.591-2.825 3.001-2.693 3.134.133.132.578-.149.99-.624.413-.475.96-.864 1.216-.864.668 0 3.24-2.662 3.24-3.353 0-.319.223-.655.496-.746.361-.12.315-.347-.171-.833-.747-.747-1.125-.848-1.125-.301m5.2 2.833c0 .44.18.8.4.8.22 0 .4-.36.4-.8 0-.44-.18-.8-.4-.8-.22 0-.4.36-.4.8m-26.4.4c0 .22.36.4.8.4.44 0 .8-.18.8-.4 0-.22-.36-.4-.8-.4-.44 0-.8.18-.8.4m3.2.8c0 .22.54.4 1.2.4.66 0 1.2-.18 1.2-.4 0-.22-.54-.4-1.2-.4-.66 0-1.2.18-1.2.4m20.7 3.266c-1.587 1.781-1.355 2.215.3.561.77-.77 1.4-1.496 1.4-1.614 0-.513-.681-.091-1.7 1.053m-5.1 3.134c0 .22.36.4.8.4.44 0 .8-.18.8-.4 0-.22-.36-.4-.8-.4-.44 0-.8.18-.8.4" fill="#2c90f0"/><path d="M354.8 21.6c0 .22-.72.4-1.6.4-.88 0-1.6.18-1.6.4 0 .22-.36.4-.8.4-.44 0-.8.18-.8.4 0 .22-.278.4-.617.4-.339 0-.834.179-1.1.399-2.368 1.954-3.083 2.826-3.083 3.761 0 .572-.18 1.04-.4 1.04-.22 0-.4.54-.4 1.2 0 .66-.18 1.2-.4 1.2-.22 0-.4.18-.4.4 0 .594 1.173.484 1.829-.171.314-.315.571-1.035.571-1.6 0-.566.18-1.029.4-1.029.22 0 .4-.32.4-.712 0-.391.36-.971.8-1.288.44-.317.8-.897.8-1.288 0-.437.299-.712.771-.712.425 0 1.042-.27 1.372-.6.33-.33.883-.6 1.228-.6.346 0 .629-.18.629-.4 0-.22.54-.4 1.2-.4.66 0 1.2-.18 1.2-.4 0-.22.99-.4 2.2-.4 1.21 0 2.2.18 2.2.4 0 .22.9.4 2 .4s2 .18 2 .4c0 .22.54.4 1.2.4.66 0 1.2.157 1.2.348 0 .192.861.463 1.913.603 1.243.165 2.115.533 2.489 1.051.316.439.811.798 1.1.798.696 0 3.298 2.623 3.298 3.325 0 .805 1.387 2.275 2.147 2.275.386 0 .653-.327.653-.8 0-.44-.18-.8-.4-.8-.22 0-.4-.36-.4-.8 0-.44-.18-.8-.4-.8-.22 0-.4-.283-.4-.629 0-.345-.225-.863-.5-1.151a13.563 13.563 0 0 1-1.072-1.348c-.326-.472-1.226-.937-2.1-1.084-.84-.142-1.528-.422-1.528-.623s-.54-.365-1.2-.365c-.66 0-1.2-.18-1.2-.4 0-.22-.72-.4-1.6-.4-.88 0-1.6-.18-1.6-.4 0-.229-1.2-.4-2.8-.4-1.6 0-2.8-.171-2.8-.4 0-.22-.99-.4-2.2-.4-1.21 0-2.2.18-2.2.4m10.8 4.4c0 .22.32.4.712.4.391 0 .971.36 1.288.8.317.44.819.8 1.114.8.296 0 1.435.921 2.532 2.047 1.096 1.126 2.092 1.949 2.211 1.829.311-.311-4.133-4.676-4.76-4.676-.286 0-.78-.36-1.097-.8-.596-.826-2-1.107-2-.4m-44.4 6.4c0 .22.54.4 1.2.4.66 0 1.2-.18 1.2-.4 0-.22-.54-.4-1.2-.4-.66 0-1.2.18-1.2.4m-4.8.8c0 .22.72.4 1.6.4.88 0 1.6-.18 1.6-.4 0-.22-.72-.4-1.6-.4-.88 0-1.6.18-1.6.4m75.6-.171c0 .424 1.236 1.468 1.467 1.238.125-.126-.05-.507-.391-.848-.635-.635-1.076-.795-1.076-.39M313.2 34c0 .22-.276.4-.613.4-.796 0-3.387 2.591-3.387 3.387 0 .337-.18.613-.4.613-.22 0-.4.54-.4 1.2 0 .66.18 1.2.4 1.2.22 0 .4-.54.4-1.2 0-.66.18-1.2.4-1.2.22 0 .4-.278.4-.618 0-.8 1.782-2.582 2.582-2.582.34 0 .618-.18.618-.4 0-.22.54-.4 1.2-.4.66 0 1.2-.18 1.2-.4 0-.22-.54-.4-1.2-.4-.66 0-1.2.18-1.2.4m80.4 2.4c0 .233 1.333.4 3.2.4 1.867 0 3.2-.167 3.2-.4s-1.333-.4-3.2-.4c-1.867 0-3.2.167-3.2.4M308.101 43c.004.88.086 1.193.182.695.096-.497.092-1.217-.008-1.6-.1-.382-.179.025-.174.905M286.8 44.8c0 .22.36.4.8.4.44 0 .8-.18.8-.4 0-.22-.36-.4-.8-.4-.44 0-.8.18-.8.4m-5.14 1.842c-.729.824-.26 1.215.521.434.34-.34.619-.722.619-.847 0-.42-.594-.205-1.14.413m-2.06.958c0 .44.18.8.4.8.22 0 .4-.36.4-.8 0-.44-.18-.8-.4-.8-.22 0-.4.36-.4.8m-1.6 1.813c0 1.234-2.418 3.787-3.587 3.787-.447 0-.813.18-.813.4 0 .869 3.21.427 4.218-.582 1.016-1.015 1.47-4.618.582-4.618-.22 0-.4.456-.4 1.013m-6 5.787c0 .22.36.4.8.4.44 0 .8-.18.8-.4 0-.22-.36-.4-.8-.4-.44 0-.8.18-.8.4m-18.873 2.419c-.077.231-1.626.497-3.443.591-3.683.192-5.284 1.153-5.284 3.172 0 .751-.21 1.018-.8 1.018-.522 0-.8-.267-.8-.767 0-.421-.225-.858-.5-.969-.378-.154-.357-.303.088-.612.324-.225.449-.548.279-.719-.452-.451-1.086.746-.831 1.567.144.462.004.7-.409.7-.345 0-.627.18-.627.4 0 .22-.36.4-.8.4-.44 0-.8-.18-.8-.4 0-.22-.18-.4-.4-.4-.22 0-.4.36-.4.8 0 .681.267.8 1.8.8.99 0 1.8.18 1.8.4 0 .6-4.296.504-4.512-.1-.098-.275-.315-.374-.481-.219-.404.376.773 1.519 1.564 1.519.346 0 .629.18.629.4 0 .22-1.003.4-2.229.4-2.293 0-3.371.566-3.371 1.771 0 .747 1.442.854 1.736.129.153-.378.316-.353.664.1.348.453.511.478.664.1.111-.275.533-.5.936-.5s.838-.225.967-.5c.186-.4.28-.4.466 0 .277.593 1.767.677 1.767.1 0-.22.45-.4 1-.4.733 0 1-.213 1-.8 0-.593.267-.8 1.029-.8 1.157 0 2.171-.827 2.171-1.771 0-.346.32-.629.712-.629.391 0 .971-.36 1.288-.8.317-.44.897-.8 1.288-.8.392 0 .712-.18.712-.4 0-.22.36-.4.8-.4.44 0 .8-.18.8-.4 0-.22.345-.4.767-.4.421 0 .837-.213.924-.473.1-.301 1.499-.538 3.833-.649 2.022-.097 3.676-.334 3.676-.527 0-.51-7.502-.444-7.673.068M232 75.4c0 .55.18 1 .4 1 .22 0 .4-.45.4-1s-.18-1-.4-1c-.22 0-.4.45-.4 1m0 12.2c0 .44.18.8.4.8.22 0 .4-.36.4-.8 0-.44-.18-.8-.4-.8-.22 0-.4.36-.4.8m14 14.229c0 .125.257.485.571.8.656.655 1.829.765 1.829.171 0-.22-.36-.4-.8-.4-.44 0-.8-.18-.8-.4 0-.22-.18-.4-.4-.4-.22 0-.4.103-.4.229m3.2 1.771c0 .22.54.4 1.2.4.66 0 1.2-.18 1.2-.4 0-.22-.54-.4-1.2-.4-.66 0-1.2.18-1.2.4m3.2.8c0 .22.9.4 2 .4s2-.18 2-.4c0-.22-.9-.4-2-.4s-2 .18-2 .4m8.4.8c0 .24 1.6.4 4 .4s4-.16 4-.4c0-.24-1.6-.4-4-.4s-4 .16-4 .4m14 .8c0 .22.9.4 2 .4s2-.18 2-.4c0-.22-.9-.4-2-.4s-2 .18-2 .4m-.4 188.8c0 .22.81.4 1.8.4s1.8-.18 1.8-.4c0-.22-.81-.4-1.8-.4s-1.8.18-1.8.4m-12.8.8c0 .229 1.2.4 2.8.4 1.6 0 2.8-.171 2.8-.4s-1.2-.4-2.8-.4c-1.6 0-2.8.171-2.8.4m-6.8.8c0 .22.72.4 1.6.4.88 0 1.6-.18 1.6-.4 0-.22-.72-.4-1.6-.4-.88 0-1.6.18-1.6.4m-4.8.8c0 .22-.54.4-1.2.4-.66 0-1.2.18-1.2.4 0 .22-.32.4-.712.4-.391 0-.971.36-1.288.8-.317.44-.857.8-1.2.8-.343 0-.883.36-1.2.8-.317.44-.723.8-.902.8-.533 0-3.098 2.731-3.098 3.298 0 .289-.36.785-.8 1.102-1.104.795-1.001 1.202.3 1.188.729-.008 1.437-.421 2.1-1.225 2.288-2.775 6.405-6.763 6.981-6.763.34 0 .619-.18.619-.4 0-.22.36-.4.8-.4.44 0 .8-.18.8-.4 0-.22.72-.4 1.6-.4.88 0 1.6-.18 1.6-.4 0-.22-.72-.4-1.6-.4-.88 0-1.6.18-1.6.4m-17.54 36.242c-.298.336-.408.734-.246.884.163.151.376.049.474-.226.301-.843 1.712-.596 1.712.3 0 .44.103.8.229.8.469 0 1.371-1.165 1.371-1.771 0-.751-.637-.835-.967-.129-.186.4-.28.4-.466 0-.318-.68-1.448-.604-2.107.142m2.994 1.863c-.506.607-.806.734-.933.395-.182-.486-1.721-.729-1.721-.271 0 .741 1.366 1.371 2.971 1.371 1.006 0 1.829.18 1.829.4 0 .22-.18.4-.4.4-.22 0-.4.18-.4.4 0 .22.54.4 1.2.4.66 0 1.2.18 1.2.4 0 .22.545.4 1.21.4 1.024 0 1.247.184 1.45 1.2.221 1.107.94 1.718.94.8 0-.606 1.178-.479 1.857.2.33.33 1.307.6 2.172.6.864 0 1.571.18 1.571.4 0 .22.72.4 1.6.4.88 0 1.6.18 1.6.4 0 .22.18.4.4.4 1.469 0 .219-1.516-1.437-1.743-1.327-.182-2.149-.586-2.961-1.454-.617-.662-1.411-1.203-1.762-1.203a.636.636 0 0 1-.64-.629c0-1.081-1.079-1.771-2.771-1.771-1.362 0-1.629-.131-1.629-.8 0-.533-.267-.8-.8-.8-.44 0-.8-.18-.8-.4 0-.824-2.972-.423-3.746.505M233.6 338.8c0 .22.36.4.8.4.44 0 .8-.18.8-.4 0-.22-.36-.4-.8-.4-.44 0-.8.18-.8.4m19.6 4.4c0 .22.54.4 1.2.4.66 0 1.2-.18 1.2-.4 0-.22-.54-.4-1.2-.4-.66 0-1.2.18-1.2.4m18.8 2c0 .44.18.8.4.8.22 0 .4-.36.4-.8 0-.44-.18-.8-.4-.8-.22 0-.4.36-.4.8m-.8 2c0 .22.54.4 1.2.4.66 0 1.2.18 1.2.4 0 .22-.36.4-.8.4-.44 0-.8.18-.8.4 0 .22.32.4.712.4.391 0 .976.385 1.3.855.323.471.993 1.272 1.488 1.782s.9 1.205.9 1.545c0 .34.18.618.4.618.22 0 .4-.36.4-.8 0-.44.18-.8.4-.8.22 0 .4.54.4 1.2 0 .66.18 1.2.4 1.2.22 0 .4-.72.4-1.6 0-.88-.18-1.6-.4-1.6-.22 0-.4-.276-.4-.613 0-.686-2.542-3.387-3.187-3.387a.408.408 0 0 1-.413-.4c0-.22-.72-.4-1.6-.4-.88 0-1.6.18-1.6.4m8.4 6.4c0 .22.36.4.8.4.44 0 .8-.18.8-.4 0-.22-.36-.4-.8-.4-.44 0-.8.18-.8.4m5.6 2.4c0 .22.36.4.8.4.44 0 .8-.18.8-.4 0-.22-.36-.4-.8-.4-.44 0-.8.18-.8.4m24 8.218c0 .414 2.049 2.266 2.267 2.049.12-.12-.243-.679-.806-1.243-.996-.996-1.461-1.252-1.461-.806m84.4.182c0 .233 1.333.4 3.2.4 1.867 0 3.2-.167 3.2-.4s-1.333-.4-3.2-.4c-1.867 0-3.2.167-3.2.4m-1.14 2.642c-.729.824-.26 1.215.521.434.34-.34.619-.722.619-.847 0-.42-.594-.205-1.14.413m-77.66.558c0 .22.36.4.8.4.44 0 .8-.18.8-.4 0-.22-.36-.4-.8-.4-.44 0-.8.18-.8.4m5.6.8c0 .22.36.4.8.4.44 0 .8-.18.8-.4 0-.22-.36-.4-.8-.4-.44 0-.8.18-.8.4m50.5 3.425c-1.595 1.63-2.9 3.146-2.9 3.369 0 .223-.32.406-.712.406-.391 0-.971.36-1.288.8-.317.44-.897.8-1.288.8-.392 0-.712.18-.712.4 0 .22-.54.4-1.2.4-.66 0-1.2.18-1.2.4 0 .22.54.4 1.2.4.66 0 1.2-.18 1.2-.4 0-.22.5-.4 1.112-.4.653 0 1.349-.33 1.688-.8.317-.44.815-.8 1.106-.8.292 0 .98-.45 1.53-1s1.268-1 1.596-1c.867 0 3.199-2.471 3.513-3.724.149-.592.447-1.076.663-1.076.215 0 .392-.18.392-.4 0-1.227-2.052-.081-4.7 2.625m-24.9 3.188c0 .496 2.825 2.987 3.387 2.987.337 0 .613.18.613.4 0 .22.54.4 1.2.4.66 0 1.2-.18 1.2-.4 0-.22-.54-.4-1.2-.4-.66 0-1.2-.18-1.2-.4 0-.22-.288-.4-.64-.4-.351 0-1.143-.54-1.76-1.2-1.059-1.134-1.6-1.467-1.6-.987m7.2 4.187c0 .22.72.4 1.6.4.88 0 1.6-.18 1.6-.4 0-.22-.72-.4-1.6-.4-.88 0-1.6.18-1.6.4m4 0c0 .22.81.4 1.8.4s1.8-.18 1.8-.4c0-.22-.81-.4-1.8-.4s-1.8.18-1.8.4m-88.4 1.431c0 .686-.553 1.563-1.65 2.617-.907.872-1.543 1.693-1.412 1.824s.766-.327 1.411-1.017c.644-.69 1.28-1.255 1.411-1.255.58 0 .163 1.373-.624 2.056-.475.412-.758.855-.629.984.129.13 1.246-.776 2.483-2.012 1.981-1.981 2.177-2.318 1.657-2.838-.757-.757-1.047-.746-1.047.039 0 .791-1.143 1.968-1.519 1.564-.155-.166-.056-.383.219-.481.591-.211.683-2.512.1-2.512-.22 0-.4.464-.4 1.031m5.6-.678c0 .215.27.66.6.99.679.679.806 1.857.2 1.857-.22 0-.4.345-.4.767 0 .937-2.893 4.033-3.769 4.033-.347 0-.631.18-.631.4 0 .22-.283.4-.629.4-.791 0-1.968 1.143-1.564 1.519.166.155.383.056.481-.219.098-.275.524-.5.945-.5.422 0 .767-.18.767-.4 0-.22.284-.4.631-.4.348 0 1.293-.714 2.1-1.587 2.252-2.434 2.469-2.733 2.469-3.396 0-.339.18-.617.4-.617.738 0 .409-1.227-.6-2.236-.55-.55-1-.825-1-.611m-1.6.814c0 .201.221.44.49.53.275.091-.798 1.434-2.443 3.057-1.613 1.591-2.825 3.001-2.693 3.134.133.132.578-.149.99-.624.413-.475.96-.864 1.216-.864.668 0 3.24-2.662 3.24-3.353 0-.319.223-.655.496-.746.361-.12.315-.347-.171-.833-.747-.747-1.125-.848-1.125-.301m5.2 2.833c0 .44.18.8.4.8.22 0 .4-.36.4-.8 0-.44-.18-.8-.4-.8-.22 0-.4.36-.4.8m-26.4.4c0 .22.36.4.8.4.44 0 .8-.18.8-.4 0-.22-.36-.4-.8-.4-.44 0-.8.18-.8.4m3.2.8c0 .22.54.4 1.2.4.66 0 1.2-.18 1.2-.4 0-.22-.54-.4-1.2-.4-.66 0-1.2.18-1.2.4m20.7 3.266c-1.587 1.781-1.355 2.215.3.561.77-.77 1.4-1.496 1.4-1.614 0-.513-.681-.091-1.7 1.053m-5.1 3.134c0 .22.36.4.8.4.44 0 .8-.18.8-.4 0-.22-.36-.4-.8-.4-.44 0-.8.18-.8.4" fill="#2c90f0"/></g></svg>